<?xml version="1.0" encoding="UTF-8"?>
<svg id="Layer_2" data-name="Layer 2" xmlns="http://www.w3.org/2000/svg" viewBox="0 0 431.61 164.64">
  <defs>
    <style>
      .cls-1 {
        fill: #fff;
        stroke-width: 0px;
      }
    </style>
  </defs>
  <g id="Layer_1-2" data-name="Layer 1">
    <g>
      <path class="cls-1" d="m272.73,164.64c.3-.18.61-.32.96-.47h-.62c-.12.14-.23.29-.34.47Z"/>
      <path class="cls-1" d="m270.81,163.91v.36c.23-.07.5-.14.76-.18q0-.18-.76-.18Z"/>
      <path class="cls-1" d="m275.03,164.09c.3-.18.61-.32.96-.47h-.61c-.12.14-.23.29-.34.47Z"/>
      <path class="cls-1" d="m272.15,163.91c.19-.11.38-.22.57-.29q-.46.04-.57.29Z"/>
      <path class="cls-1" d="m273.3,163.55h.57v-.18h-.57v.18Z"/>
      <path class="cls-1" d="m278.86,163.55c.11-.04.23-.07.38-.11q.08-.21-.38.11Z"/>
      <path class="cls-1" d="m275.52,163.16c-.23-.04-.46-.04-.65-.04.04.07.07.15.15.25.15-.07.3-.14.5-.21Z"/>
      <path class="cls-1" d="m278.66,163.19c.23-.14.46-.29.69-.4-.12-.04-.23-.07-.35-.07-.11.14-.23.29-.35.47Z"/>
      <path class="cls-1" d="m276.17,163.01c.23-.11.5-.22.77-.29-.23-.07-.46-.14-.69-.22-.04.14-.08.33-.08.51Z"/>
      <path class="cls-1" d="m278.47,162.29c.31-.07.61-.14.96-.18-.08-.11-.15-.22-.2-.29q-.65.22-.76.47Z"/>
      <path class="cls-1" d="m281.15,161.46q-.42,0-.96.29c.31-.11.61-.22.96-.29Z"/>
      <path class="cls-1" d="m251.78,160.99c-.42.18-.84.36-1.27.58.77-.18,1.53-.36,2.3-.54v-.54c-.35.04-.65.11-.96.18-.04.11-.08.22-.08.33Z"/>
      <path class="cls-1" d="m254.61,160.34c-.23.14-.46.32-.65.51q.42-.11.65-.51Z"/>
      <path class="cls-1" d="m258.56,160.85h.38v-.18h-.38v.18Z"/>
      <path class="cls-1" d="m188.06,160.48h.38v-.36h-.38v.36Z"/>
      <path class="cls-1" d="m194.19,160.48c.15-.04.3-.07.46-.11q-.08-.18-.46.11Z"/>
      <path class="cls-1" d="m195.91,160.48c.08-.14.19-.29.31-.4-.12-.04-.23-.07-.35-.07,0,.15,0,.29.04.47Z"/>
      <path class="cls-1" d="m196.68,160.12v.36c.27-.18.57-.36.88-.54q-.15-.11-.88.18Z"/>
      <path class="cls-1" d="m180.02,160.3h.19v-.36h-.19v.36Z"/>
      <path class="cls-1" d="m181.17,160.12q-.38,0-.38.18.65-.11.88-.39c-.19-.07-.34-.11-.5-.14v.36Z"/>
      <path class="cls-1" d="m190.17,159.83c-.15.14-.27.29-.38.47q.3-.11.38-.47Z"/>
      <path class="cls-1" d="m201.65,160.3c.77-.21,1.53-.43,2.3-.65q-1.34,0-2.3.29v.36Z"/>
      <path class="cls-1" d="m169.87,160.12q.38-.25,1.15-.36v-.54h-.76c-.15.29-.27.58-.38.9Z"/>
      <path class="cls-1" d="m172.93,160.12c.88-.07,1.34-.21,2.11-.65-.73.07-1.42.18-2.11.29v.36Z"/>
      <path class="cls-1" d="m186.14,160.12c.15-.04.31-.07.46-.11q-.08-.18-.46.11Z"/>
      <path class="cls-1" d="m193.04,160.12c.08-.07.19-.14.31-.21q-.19-.04-.31.21Z"/>
      <path class="cls-1" d="m258.75,160.12c.27-.11.54-.21.81-.29.04-.22.08-.43.15-.61-.38.14-.73.29-1.07.43.04.14.07.29.11.47Z"/>
      <path class="cls-1" d="m198.21,159.94h.57c-.08-.11-.12-.21-.15-.32q-.42.15-.42.32Z"/>
      <path class="cls-1" d="m204.53,159.94h.96v-.18h-.96v.18Z"/>
      <path class="cls-1" d="m205.87,159.94h.77v-.18h-.77v.18Z"/>
      <path class="cls-1" d="m207.21,159.94h.38c-.08-.11-.15-.21-.23-.29-.08.07-.12.18-.15.29Z"/>
      <path class="cls-1" d="m287.66,159.94c.08-.07.19-.14.3-.21-.15-.04-.3-.04-.46-.04.04.07.08.14.15.25Z"/>
      <path class="cls-1" d="m168.53,159.76c.27-.15.57-.29.88-.4q-.38-.04-.88.4Z"/>
      <path class="cls-1" d="m263.92,159.76h.38v-.18h-.38v.18Z"/>
      <path class="cls-1" d="m285.56,159.76q.99-.29,1.26-.58c-.38-.11-.73-.22-1.07-.33-.08.29-.16.58-.19.9Z"/>
      <path class="cls-1" d="m165.28,159.58h2.49v-.36c-.77-.07-1.53-.14-2.3-.18-.08.18-.15.36-.19.54Z"/>
      <path class="cls-1" d="m171.59,159.58h.38v-.18h-.38v.18Z"/>
      <path class="cls-1" d="m260.28,159.58c.19-.07.38-.14.57-.18v-.36c-.15.04-.31.07-.46.11-.04.14-.08.29-.11.43Z"/>
      <path class="cls-1" d="m266.22,159.4c.34-.15.27-.25.57-.47-.15,0-.3,0-.46.04-.04.14-.07.29-.11.43Z"/>
      <path class="cls-1" d="m262.81,158.57c-.04.22-.04.43-.04.65.58-.25,1.15-.51,1.72-.72-.07-.11-.15-.22-.19-.29q-.96.36-1.49.36Z"/>
      <path class="cls-1" d="m289.19,159.22q.58-.11.85-.4c-.31,0-.58,0-.85.04v.36Z"/>
      <path class="cls-1" d="m267.37,158.5c-.08.18-.15.36-.19.54.27-.18.54-.33.8-.47q-.04-.18-.61-.07Z"/>
      <path class="cls-1" d="m162.21,158.86h.38v-.18h-.38v.18Z"/>
      <path class="cls-1" d="m229.84,158.86c.39-.07.81-.14,1.23-.22q-.27-.07-1.23.22Z"/>
      <path class="cls-1" d="m287.51,158.61c.04.07.08.14.15.25.12-.04.27-.07.42-.11-.04-.14-.04-.25-.04-.36-.19.07-.38.14-.54.22Z"/>
      <path class="cls-1" d="m162.79,158.68h.19v-.36h-.19v.36Z"/>
      <path class="cls-1" d="m232.14,158.5h.38v-.18h-.38v.18Z"/>
      <path class="cls-1" d="m265.64,157.96c.12.18.23.36.38.54q.07-.25.38-.36,0-.18-.77-.18Z"/>
      <path class="cls-1" d="m269.47,158.5q.35-.44,1.15-.83c-.61-.14-1.03.33-1.15.83Z"/>
      <path class="cls-1" d="m288.62,158.5h.38c-.07-.11-.15-.22-.23-.29-.08.07-.12.18-.15.29Z"/>
      <path class="cls-1" d="m159.91,158.32h.77c-.08-.11-.12-.22-.15-.32q-.61.14-.61.32Z"/>
      <path class="cls-1" d="m233.86,158.32c.42-.11.88-.22,1.34-.29-.61-.07-.88-.04-1.34.29Z"/>
      <path class="cls-1" d="m289.77,158.32v-.18h-.38v.18h.38Z"/>
      <path class="cls-1" d="m226.77,157.96h.38v-.18h-.38v.18Z"/>
      <path class="cls-1" d="m232.71,157.96c.08-.07.19-.14.31-.22q-.19-.04-.31.22Z"/>
      <path class="cls-1" d="m290.72,157.96h.38v-.18h-.38v.18Z"/>
      <path class="cls-1" d="m271.04,156.73c.23-.07.46-.14.69-.18.12.11.27.25.42.4-.31.29-.54.4-1.04.4,0,.14.04.29.08.43,2.3-.9,4.1-2.13,6.36-3.18-.04-.18-.04-.36-.04-.54-1.76,0-5.9,1.23-6.86,2.6.08.11.15.25.23.4.04-.11.08-.21.15-.32Z"/>
      <path class="cls-1" d="m152.64,157.6c.23-.07.5-.14.77-.18v-.36c-.23.04-.46.07-.65.11-.04.14-.08.29-.12.43Z"/>
      <path class="cls-1" d="m278.86,156.15c-.73.14-.77.72-1.61.83-.12.18-.23.4-.3.61.61-.25,1.26-.51,1.91-.72v-.72Z"/>
      <path class="cls-1" d="m229.65,157.42c.12-.04.23-.07.38-.11q.07-.22-.38.11Z"/>
      <path class="cls-1" d="m269.86,157.24c0-.36.04-.72.07-1.08-.23.4-.46.83-.65,1.26.19-.07.38-.14.57-.18Z"/>
      <path class="cls-1" d="m292.45,157.42c.15-.07.3-.14.5-.22q-.39-.04-.5.22Z"/>
      <path class="cls-1" d="m294.94,157.42h.19v-.36h-.19v.36Z"/>
      <path class="cls-1" d="m149.96,157.06c.04-.18.11-.36.19-.54h-1.15c0,.18.76.29.96.54Z"/>
      <path class="cls-1" d="m293.21,157.06c.19-.04.38-.07.61-.11q-.04-.18-.61.11Z"/>
      <path class="cls-1" d="m233.67,156.87c.19-.11.39-.21.57-.29q-.46.04-.57.29Z"/>
      <path class="cls-1" d="m235.77,156.87q.43-.11.69-.39c-.19-.04-.38-.04-.57-.04-.04.14-.08.29-.12.43Z"/>
      <path class="cls-1" d="m294.56,156.87q.8-.65.77-.83-.46.22-.77.83Z"/>
      <path class="cls-1" d="m237.88,156.7c.38-.29.77-.58,1.15-.83-.19-.04-.38-.04-.58-.04-.19.29-.38.58-.57.87Z"/>
      <path class="cls-1" d="m296.66,156.7h.38c-.08-.11-.15-.22-.23-.29-.08.07-.12.18-.16.29Z"/>
      <path class="cls-1" d="m274.83,156.51c.08-.07.19-.14.3-.22q-.19-.04-.3.22Z"/>
      <path class="cls-1" d="m247.26,156.33h.38v-.18h-.38v.18Z"/>
      <path class="cls-1" d="m248.22,156.33c.38-.18.77-.33,1.15-.47-.53.04-1.03.11-1.53.18.12.07.23.18.38.29Z"/>
      <path class="cls-1" d="m277.25,155.54c-.19-.04-.35-.07-.5-.11v.72c.15-.22.31-.43.5-.61Z"/>
      <path class="cls-1" d="m249.56,155.61v.36c.8-.22,1.65-.43,2.49-.65-.84.07-1.69.18-2.49.29Z"/>
      <path class="cls-1" d="m144.41,155.79h.38v-.18h-.38v.18Z"/>
      <path class="cls-1" d="m281.15,155.79c.15-.07.31-.14.5-.21q-.38-.04-.5.21Z"/>
      <path class="cls-1" d="m242.86,155.43h.38v-.18h-.38v.18Z"/>
      <path class="cls-1" d="m278.28,155.43q1-.29,1.54-.65c-.85-.07-1.23-.11-1.54.65Z"/>
      <path class="cls-1" d="m300.3,155.43h.38v-.18h-.38v.18Z"/>
      <path class="cls-1" d="m256.07,154.42c-.88,0-1.8.07-2.49.65,1.03-.04,1.61-.14,2.49-.65Z"/>
      <path class="cls-1" d="m298.57,155.07h.58v-.18h-.58v.18Z"/>
      <path class="cls-1" d="m301.26,155.07h.57v-.18h-.57v.18Z"/>
      <path class="cls-1" d="m302.22,154.89c.27-.14.57-.29.88-.4-.42-.11-.73.04-.88.4Z"/>
      <path class="cls-1" d="m280.96,154.42q-.38-.04-.77.29c.23-.11.5-.22.77-.29Z"/>
      <path class="cls-1" d="m137.32,154.53c.19-.11.38-.22.57-.29q-.46.04-.57.29Z"/>
      <path class="cls-1" d="m282.49,154.53c.19,0,.3-.43.84-.76-.31,0-.57,0-.84.04v.72Z"/>
      <path class="cls-1" d="m279.16,153.77c-.19-.04-.38-.04-.57-.04-.12.18-.23.4-.31.61q.62-.25.88-.58Z"/>
      <path class="cls-1" d="m281.23,153.08c-.08.11-.15.22-.23.33-1.07-.04-1.34.11-1.76.94.65-.29,1.3-.58,1.96-.83,0-.14,0-.29.04-.43Z"/>
      <path class="cls-1" d="m301.83,154.35h.19v-.36h-.19v.36Z"/>
      <path class="cls-1" d="m257.41,154.17h.38v-.18h-.38v.18Z"/>
      <path class="cls-1" d="m247.26,153.81h-.38v.18h.38v-.18Z"/>
      <path class="cls-1" d="m257.98,153.99q1.34-.29,2.11-.65c-.77-.14-1.46.36-2.11.65Z"/>
      <path class="cls-1" d="m303.55,153.45c.15-.04.31-.07.46-.11q-.08-.18-.46.11Z"/>
      <path class="cls-1" d="m306.24,153.27c.15-.14.3-.29.5-.4-.12-.07-.23-.11-.31-.15-.08.18-.15.36-.19.54Z"/>
      <path class="cls-1" d="m307,153.08h.19v-.36h-.19v.36Z"/>
      <path class="cls-1" d="m267.17,150.02c-.08.29-.12.62-.15.94-1.57.61-3.14,1.37-4.82,1.59v.36c1.38-.36,2.79-.72,4.21-1.08v-.36c.38-.14.77-.25,1.15-.36.04-.32.11-.61.19-.9h.38c-.08-.11-.12-.22-.15-.32-.27.04-.53.07-.8.14Z"/>
      <path class="cls-1" d="m306.24,152.36h-.38v.18h.38v-.18Z"/>
      <path class="cls-1" d="m308.34,152.54h.19v-.36h-.19v.36Z"/>
      <path class="cls-1" d="m199.74,152.18c.96-.14,1.92-.11,2.6-.76-.88.11-1.76.25-2.6.4v.36Z"/>
      <path class="cls-1" d="m206.06,152.18c.46-.25.96-.51,1.46-.76-.61-.14-1.15.32-1.46.76Z"/>
      <path class="cls-1" d="m306.42,152.18c1.04-.21,1.76-.32,2.38-1.23q-2.26.97-2.38,1.23Z"/>
      <path class="cls-1" d="m309.11,152.18h.19v-.36h-.19v.36Z"/>
      <path class="cls-1" d="m197.82,151.64v.36c.19-.07.38-.14.57-.18q0-.18-.57-.18Z"/>
      <path class="cls-1" d="m204.91,152c.15-.04.31-.07.46-.11q-.08-.18-.46.11Z"/>
      <path class="cls-1" d="m202.42,151.82c.23-.07.46-.14.69-.21q-.31-.07-.69.21Z"/>
      <path class="cls-1" d="m210.62,151.32c-.27-.18-.54.04-.96.04-.12.14-.23.29-.35.47.42-.18.84-.36,1.3-.5Z"/>
      <path class="cls-1" d="m215.06,151.64c.08-.07.19-.14.31-.22-.12-.07-.23-.11-.31-.14v.36Z"/>
      <path class="cls-1" d="m216.97,151.64q1.15-.29,2.03-.76c-.88-.18-1.53.18-2.03.76Z"/>
      <path class="cls-1" d="m312.28,149.44c-1.22-.22-2.22.54-2.72,1.48.23.07.5.18.77.29.04.14.07.29.11.43.69-.29,1.53-1.08,2.3-1.08v-.36c-.54-.04-1.04-.07-1.53-.11q.19-.32,1.07-.65Z"/>
      <path class="cls-1" d="m190.74,151.1v.36c.23-.07.5-.14.77-.18q0-.18-.77-.18Z"/>
      <path class="cls-1" d="m222.37,151.28q.23-.11.27-.54c-.12.18-.19.36-.27.54Z"/>
      <path class="cls-1" d="m263.92,150.92v.36h.19v-.36h-.19Z"/>
      <path class="cls-1" d="m209.69,150.92h-.38v.18h.38v-.18Z"/>
      <path class="cls-1" d="m219.46,151.1q.69-.11,1.34-.47c-.42.07-.84.14-1.22.21-.04.07-.08.14-.12.25Z"/>
      <path class="cls-1" d="m268.51,150.74h.38v-.18h-.38v.18Z"/>
      <path class="cls-1" d="m131.62,149.48h-.5c-.04-.14-.08-.25-.12-.36-.27-.04-.54-.07-.77-.11-.19.26-.38.54-.54.83.99.18,1.65.11,2.45.72.12-.11.27-.18.42-.25v-.65c-.23.11-.46.22-.65.32-.12-.18-.23-.36-.31-.5Z"/>
      <path class="cls-1" d="m273.11,149.37c-1.3.32-2.41.4-3.45,1.19.96-.07,2.07-.61,3.64-.9-.07-.11-.15-.22-.19-.29Z"/>
      <path class="cls-1" d="m228.88,150.38c.61-.14,1.22-.29,1.84-.4-.88-.07-1.07.04-1.84.4Z"/>
      <path class="cls-1" d="m262.2,150.02v.36h.38v-.36h-.38Z"/>
      <path class="cls-1" d="m290.92,150.38v-.54h-.19v.54h.19Z"/>
      <path class="cls-1" d="m313.51,150.38q.19,0,.19-.72c.19-.07.38-.11.61-.14.04-.14.08-.29.15-.4-.31.07-.57.18-.84.29-.04.33-.08.65-.11.97Z"/>
      <path class="cls-1" d="m182.62,149.37c-.77-.97-5.4-.65-6.62-.25v-.36h-4.6v.36c1.8.11,3.6.22,5.44.32.08.11.19.25.31.4v-.36h1.34q0,.18-.57.18v.36h.77c.04-.14.08-.29.12-.43.19-.04.42-.07.65-.11v.36c1.15-.04,2.14-.47,3.18-.47Z"/>
      <path class="cls-1" d="m268.71,149.84h-.38v.18h.38v-.18Z"/>
      <path class="cls-1" d="m304.13,150.02h.38v-.18h-.38v.18Z"/>
      <path class="cls-1" d="m183.27,149.84v-.18h-.38v.18h.38Z"/>
      <path class="cls-1" d="m129.28,149.65h.19v-.36h-.19v.36Z"/>
      <path class="cls-1" d="m187.29,149.48v-.36c-1.23.07-2.45.15-3.64.25.69.07,1.38.18,2.11.29.5-.07,1-.14,1.53-.18Z"/>
      <path class="cls-1" d="m233.09,149.65c.27-.11.54-.22.8-.29v-.43c-.27.22-.54.47-.8.72Z"/>
      <path class="cls-1" d="m305.77,148.5c-.23.36-.46.76-.69,1.15q.65-.11,1.91-.83c-.42-.11-.84-.22-1.23-.32Z"/>
      <path class="cls-1" d="m313.7,148.47c-.5.32-.84.47-.96,1.01.34-.18.69-.32,1.03-.47-.04-.18-.07-.36-.07-.54Z"/>
      <path class="cls-1" d="m159.15,147.31q-.88.07-5.74-.36,0-.18.57-.18v-.36c-2.91.4-5.9-.04-8.81-.54v-.36c-5.48.43-10.99-2.92-16.39-2.92,1.57,1.19,4.29,1.23,6.24,1.84v.36c5.59.83,11.14,1.91,16.66,3.14,6.13.76,12.41.9,18.57,1.01v.36q.19,0,.19-.36h.38c0-.18-1.53-.29-2.87-.65-2.95-.14-5.86-.61-8.81-.61v-.36Z"/>
      <path class="cls-1" d="m274.76,149.08q-.31-.07-.69.22c.23-.07.46-.14.69-.22Z"/>
      <path class="cls-1" d="m294.59,148.61c.15-.11.3-.18.46-.25-.23-.07-.46-.11-.69-.15-.15.36-.27.72-.38,1.08.19-.07.38-.14.58-.18,0-.18,0-.36.04-.51Z"/>
      <path class="cls-1" d="m132.15,149.11c-.08-.25-.11-.51-.15-.72-.15.21-.31.47-.42.72h.57Z"/>
      <path class="cls-1" d="m293.21,148.75h-.19v.36h.19v-.36Z"/>
      <path class="cls-1" d="m301.64,147.56c-1.15.4-1.49.32-1.72,1.55.57-.36,1.19-.69,1.8-1.01-.04-.18-.08-.36-.08-.54Z"/>
      <path class="cls-1" d="m311.21,149.11v-.36h-.19v.36h.19Z"/>
      <path class="cls-1" d="m275.41,148.93h.58v-.18h-.58v.18Z"/>
      <path class="cls-1" d="m242.86,148.39v.36h.19v-.36h-.19Z"/>
      <path class="cls-1" d="m241.33,148.57h.38c-.08-.11-.15-.21-.23-.29-.08.07-.12.18-.16.29Z"/>
      <path class="cls-1" d="m286.13,148.57c.08-.07.2-.14.31-.21-.11-.07-.23-.11-.31-.15v.36Z"/>
      <path class="cls-1" d="m129.28,148.39q.23-.11.38-.72c-.34-.04-.65-.07-.96-.07.19.25.38.5.58.79Z"/>
      <path class="cls-1" d="m236.66,147.63c-.42.04-.85.11-1.23.18.04.18.07.36.15.58.35-.25.69-.51,1.08-.76Z"/>
      <path class="cls-1" d="m306.12,143.37c-.57.47-1.38.04-1.65.83-1.07.07-1.8.11-2.18,1.08-1.65-.11-6.13,1.37-6.59,2.92.12.04.23.11.38.18,2.11-.47,3.45-.87,5.17-2.24,1.19-.44,4.4-1.7,4.86-2.78Z"/>
      <path class="cls-1" d="m286.71,148.21c.5-.22,1-.43,1.53-.65-.84-.07-1.23-.11-1.53.65Z"/>
      <path class="cls-1" d="m315.04,148.21c.07-.07.19-.14.3-.22q-.19-.04-.3.22Z"/>
      <path class="cls-1" d="m308.72,148.03v-.18h-.38v.18h.38Z"/>
      <path class="cls-1" d="m308.92,147.85q.27-.11.27-.54c-.11.18-.19.36-.27.54Z"/>
      <path class="cls-1" d="m276.17,147.31h-.38v.18h.38v-.18Z"/>
      <path class="cls-1" d="m289,147.13c.23-.11.5-.22.77-.29q-.38-.04-.77.29Z"/>
      <path class="cls-1" d="m156.08,146.95c.15-.04.31-.07.46-.11q-.08-.18-.46.11Z"/>
      <path class="cls-1" d="m296.66,143.95c-.92.5-1.91.65-2.72,1.26-.12-.22-.23-.44-.34-.62-1.15.44-2.99,1.23-3.45,2.35,2.07-.79,3.52-1.19,5.78-1.19.46-.72.73-1.01.73-1.8Z"/>
      <path class="cls-1" d="m172.74,144.96v.54h-.38c-.08-.25-.12-.47-.15-.69-1.65.04-2.53.04-4.06.69-.08-.18-.12-.36-.15-.5-.15.04-.31.07-.42.14-.08.29-.15.57-.19.9,3.02-.11,5.97.18,9,.36,4.02-.07,8.04-.15,12.06-.18.08-.54,0-.72-.23-1.19-.08.14-.11.29-.15.47-.46.15-.88.25-1.26.07.04-.14.08-.29.12-.43q-2.49.25-4.79.18v-.54c-1.15.04-1.76.07-2.76.47-.04-.18-.08-.33-.11-.47-1.72.04-3.33.04-4.98.36v.36h-.38v-.72c-.38.04-.77.11-1.15.18Z"/>
      <path class="cls-1" d="m274.07,145.87v.36h.19v-.36h-.19Z"/>
      <path class="cls-1" d="m151.87,145.87h-.77v.18h.77v-.18Z"/>
      <path class="cls-1" d="m152.26,142.98c-.35.65-.92.83-1.72.9-.12-.22-.23-.4-.31-.58-.65-.04-1.26-.07-1.88-.11-.11-.18-.19-.32-.27-.47-1.04-.14-7.05-.65-7.28-1.33q-.73.22-1.38.14c-.08-.14-.12-.29-.15-.43-.38.04-.77.07-1.11.14-1.49-.83-4.14-.69-5.71-.76-.15-.25-.31-.51-.46-.72-1.34.04-3.56-.36-4.75-.87-.54.07-1.07.18-1.61.29v.54q.19,0,.31-.32c1.72.47,3.48.94,5.25,1.41q0,.18-.38.18c0,.18,2.11.25,4.6.72v.36c5.9.5,12.41,1.95,18.46,2.78,4.06.4,8.12.8,12.18,1.19q.54-.47.77-1.08c-1.72.18-3.52,0-5.17.36-.19-.25-.34-.51-.5-.76-.96-.07-1.53-.36-2.57-.51v.36c-.34-.07-.65-.14-.96-.18-.08-.14-.11-.29-.15-.43-.23-.04-.42-.07-.61-.11v.36c-.15.04-.3.07-.46.11-.12-.18-.23-.33-.31-.47-.96.04-1.91-.18-2.68-.18v-.36c-.38-.07-.77-.14-1.15-.18Z"/>
      <path class="cls-1" d="m284.02,146.05h.38v-.18h-.38v.18Z"/>
      <path class="cls-1" d="m149.38,145.69v.18h.38v-.18h-.38Z"/>
      <path class="cls-1" d="m318.3,145.87h.38v-.18h-.38v.18Z"/>
      <path class="cls-1" d="m322.7,145.69h.38v-.18h-.38v.18Z"/>
      <path class="cls-1" d="m285.56,145.5c.11-.04.23-.07.38-.11q.08-.22-.38.11Z"/>
      <path class="cls-1" d="m146.17,144.96c.12.11.23.22.35.36.34-.11.69-.22,1.07-.32-.5-.04-.96-.04-1.42-.04Z"/>
      <path class="cls-1" d="m293.52,142.22c-.11-.03-.23-.07-.31-.11-2.26.87-4.86,1.84-6.89,3.03,2.64-.72,4.71-1.91,7.2-2.93Z"/>
      <path class="cls-1" d="m145.17,144.96c-.08-.11-.12-.22-.16-.32q-.42.14-.42.32h.57Z"/>
      <path class="cls-1" d="m143.45,144.06q0,.18.77.36c.23-.07.5-.14.77-.18q0-.18-1.53-.18Z"/>
      <path class="cls-1" d="m307.19,142.8c-.04.22-.04.43-.04.69q-.42.14-.54.4c.84-.33,1.76-1.01,2.41-1.66-.34-.07-.69.29-1.84.58Z"/>
      <path class="cls-1" d="m298.77,142.8v.36h.19v-.36h-.19Z"/>
      <path class="cls-1" d="m258.56,142.98c.08-.07.19-.14.3-.22-.12-.07-.23-.11-.3-.14v.36Z"/>
      <path class="cls-1" d="m326.72,142.98c.15-.11.31-.22.46-.29q-.08-.18-.46.29Z"/>
      <path class="cls-1" d="m299.72,142.8c.08-.07.19-.14.31-.22-.11-.07-.23-.11-.31-.14v.36Z"/>
      <path class="cls-1" d="m309.87,141.72v.72c.15-.22.3-.4.46-.58-.16-.07-.31-.11-.46-.14Z"/>
      <path class="cls-1" d="m291.3,142.08v-.36q-.76.18-.76.36h.76Z"/>
      <path class="cls-1" d="m310.83,141.9c.15-.18.3-.33.5-.47.15.04.3.07.46.11v-.36h-1.15c.04.22.11.47.19.72Z"/>
      <path class="cls-1" d="m125.45,141.72h.57q0-.18-.96-.29c.12.07.23.18.38.29Z"/>
      <path class="cls-1" d="m329.59,141.53c.15-.11.3-.21.46-.29q-.07-.18-.46.29Z"/>
      <path class="cls-1" d="m288.43,141.35c.38-.18,1.11-.65,1.22-1.04-.38.14-.76.29-1.11.43-.04.18-.07.4-.11.61Z"/>
      <path class="cls-1" d="m298.19,141.17v.18h.38v-.18h-.38Z"/>
      <path class="cls-1" d="m313.7,140.56c.04-.11.11-.22.19-.29h-1.15c-.16.29-.27.58-.39.9.62-.14.58-.62,1.34-.62Z"/>
      <path class="cls-1" d="m293.98,140.63v.36h.19v-.36h-.19Z"/>
      <path class="cls-1" d="m330.74,140.99c.35-.18.69-.33,1.04-.47-.04-.14-.04-.29-.04-.43q-.69.47-1,.9Z"/>
      <path class="cls-1" d="m266.79,140.81c.23-.11.5-.22.77-.29q-.65.04-.77.29Z"/>
      <path class="cls-1" d="m294.56,140.81c.61-.29,1.26-.58,1.91-.83-.8-.14-1.38.36-1.91.83Z"/>
      <path class="cls-1" d="m268.9,140.27c.15-.07.31-.14.46-.22-.15-.07-.31-.11-.46-.14v.36Z"/>
      <path class="cls-1" d="m314.27,140.27c.19-.11.38-.22.58-.29q-.46.04-.58.29Z"/>
      <path class="cls-1" d="m269.66,139.8c.12.07.23.18.38.29.46-.22.96-.4,1.46-.58-.8-.07-1.11.04-1.84.29Z"/>
      <path class="cls-1" d="m315.04,139.37v.36c.27-.14.54-.29.84-.43-.04-.18-.04-.33-.04-.47-.27.18-.54.36-.8.54Z"/>
      <path class="cls-1" d="m333.81,139.73c1.69-.87,1.61-.97,2.3-1.08v-.72c-1.03.54-1.95.68-2.3,1.8Z"/>
      <path class="cls-1" d="m289.58,139.55c.23-.07.46-.14.69-.22-.19-.11-.38-.18-.54-.25-.08.14-.11.29-.15.47Z"/>
      <path class="cls-1" d="m336.49,139.55c.27-.25.57-.51.88-.76-.15-.04-.27-.04-.38-.04-.19.25-.35.51-.5.79Z"/>
      <path class="cls-1" d="m116.64,139.37c.04-.15.12-.25.19-.36-.31-.04-.61-.04-.88-.04.23.11.46.25.69.4Z"/>
      <path class="cls-1" d="m281.92,139.19c.96-.36,2.45-1.08,2.11-2.45-.69.18-1.34.36-1.99.58.15.72.15,1.05-.27,1.59.04.07.08.18.15.29Z"/>
      <path class="cls-1" d="m299.26,138.79q-.61.04-1.26.4.88-.11,1.26-.4Z"/>
      <path class="cls-1" d="m124.22,138.65c0-.18.04-.36.08-.54q-.57.04-1.19.32c-.12-.18-.23-.36-.31-.5-.46.11-.92.21-1.34.36q1.26.25,1.68.54c.34-.07.69-.14,1.07-.18Z"/>
      <path class="cls-1" d="m124.68,138.83c.23-.11.5-.22.77-.29q-.65.04-.77.29Z"/>
      <path class="cls-1" d="m290.15,138.83c.15-.07.31-.14.5-.22q-.38-.04-.5.22Z"/>
      <path class="cls-1" d="m319.06,137.93c.12-.62.27-.65.77-1.01-1,.15-1.72.87-2.49,1.55.85-.25.96-.43,1.72-.54Z"/>
      <path class="cls-1" d="m312.17,138.29h.38v-.18h-.38v.18Z"/>
      <path class="cls-1" d="m337.25,138.29h.38v-.36h-.38v.36Z"/>
      <path class="cls-1" d="m272.15,138.11h.57v-.18h-.57v.18Z"/>
      <path class="cls-1" d="m119.71,137.93c.73-.15,1.46-.29,2.18-.4-.73,0-1.46,0-2.18.04v.36Z"/>
      <path class="cls-1" d="m319.25,137.93h.38v-.18h-.38v.18Z"/>
      <path class="cls-1" d="m312.25,137.64c.04-.14.11-.29.19-.4-.31.14-.57.33-.84.5.19-.04.42-.07.65-.11Z"/>
      <path class="cls-1" d="m118.37,136.48c-.04.11-.08.22-.08.32-.31.07-.57.14-.84.22.35.18.73.36,1.11.54h.58q-.15-.47,0-1.08h-.77Z"/>
      <path class="cls-1" d="m284.64,137.02c.12.11.23.22.34.36.27-.22.58-.43.88-.65-.04-.25-.07-.47-.07-.69-.15-.03-.31-.03-.46-.03-.23.32-.46.65-.69,1.01Z"/>
      <path class="cls-1" d="m337.63,137.38c.69-.29.77-.9,1.54-.9-.08-.11-.15-.21-.19-.29-.65.4-1.03.47-1.34,1.19Z"/>
      <path class="cls-1" d="m120.28,137.02v.18h.38v-.18h-.38Z"/>
      <path class="cls-1" d="m303.55,137.2c.15-.14.31-.29.46-.43-.04-.18-.04-.32-.04-.47-.15.29-.3.58-.42.9Z"/>
      <path class="cls-1" d="m339.36,137.2h.19v-.36h-.19v.36Z"/>
      <path class="cls-1" d="m271.96,137.02h.57v-.18h-.57v.18Z"/>
      <path class="cls-1" d="m326.88,133.48c-.88.47-1.57.69-2.11,1.52-1.42.14-2.41.36-3.79.76-.04.11-.04.22-.04.32-.23.04-.42.07-.61.15,0,.25.04.51.08.79.73-.22,1.46-.43,2.18-.65q1.84.54,2.41.47c.19-1.66,2.18-1.7,1.88-3.36Z"/>
      <path class="cls-1" d="m116.45,136.84c.23-.14.46-.29.69-.4-.65-.36-1.11-.11-1.84-.07.38.14.77.29,1.15.47Z"/>
      <path class="cls-1" d="m286.51,136.66c.19-.07.38-.14.57-.18v-.36c-.15.04-.3.07-.46.11-.04.14-.08.29-.12.43Z"/>
      <path class="cls-1" d="m326.07,135.69c-.31.32-.62.65-.88.97.54-.25,1.07-.51,1.64-.76-.27-.07-.53-.14-.76-.21Z"/>
      <path class="cls-1" d="m96.35,136.48v-.36c-.19.04-.38.07-.54.11.04.07.08.14.15.25h.38Z"/>
      <path class="cls-1" d="m276.17,136.48c.61-.18,1.26-.36,1.91-.54v-.36q-1.8.65-1.91.9Z"/>
      <path class="cls-1" d="m281.34,136.3h-.38v.18h.38v-.18Z"/>
      <path class="cls-1" d="m340.89,136.48h.38c-.08-.11-.15-.21-.23-.29-.08.07-.12.18-.15.29Z"/>
      <path class="cls-1" d="m114.73,136.3c.07-.07.19-.11.3-.14-.11-.18-.19-.32-.27-.47-.61-.04-1.19-.07-1.76-.11-.08-.22-.11-.43-.15-.61q-.42-.04-.88.18c.04-.22.08-.43.11-.61.5,0,1.03.04,1.57.07-.12-.22-.19-.43-.27-.65-1.03.11-1.34.43-2.1.54v-.54c.42-.04.76,0,.96-.36-.34.04-.69.07-1.03.11-.12.22-.19.43-.27.65-.73-.07-.92-.25-2.41-.54,0-.21.04-.4.08-.58q-1.84-.29-3.25-.18v-.36c-.34-.07-.65-.14-.96-.18v-.36c-.77-.04-1.49-.04-2.22-.04,6.24,2.27,10.26,3.36,12.56,4.19Z"/>
      <path class="cls-1" d="m315.04,135.76c-.08.18-.15.36-.19.54.15-.14.31-.29.5-.4-.12-.07-.23-.11-.3-.14Z"/>
      <path class="cls-1" d="m282.3,136.12h.77v-.18h-.77v.18Z"/>
      <path class="cls-1" d="m315.92,135.33c0,.18.04.39.08.61.88-.25,1.34-.25,1.53-1.26-.92,0-.76.29-1.61.65Z"/>
      <path class="cls-1" d="m106.3,135.58v-.18h-.38v.18h.38Z"/>
      <path class="cls-1" d="m288.12,134.57c-.42.25-.84.54-1.22.83.54-.22.92-.33,1.22-.83Z"/>
      <path class="cls-1" d="m289.85,134.31c-.16.25-.31.51-.42.79.04.07.08.18.15.29.19-.07.38-.14.57-.18-.11-.33-.23-.62-.3-.9Z"/>
      <path class="cls-1" d="m115.3,135.04v.18h.57v-.18h-.57Z"/>
      <path class="cls-1" d="m281.54,135.04c.61-.18,1.07-.29,1.42-.83q-1.3.58-1.42.83Z"/>
      <path class="cls-1" d="m317.92,135.04h.38c-.04-.22-.07-.4-.07-.58q-.19-.04-.31.58Z"/>
      <path class="cls-1" d="m320.29,134.03c.08-.11.15-.22.23-.29-1.19-.22-1.04.4-.31.94.16-.04.31-.07.46-.11q0-.32-.38-.54Z"/>
      <path class="cls-1" d="m285.17,134.31v-.36c-.38,0-.46.33-.96.54.31-.07.62-.14.96-.18Z"/>
      <path class="cls-1" d="m343.76,134.31h.19v-.36h-.19v.36Z"/>
      <path class="cls-1" d="m285.36,134.14c.46-.14.96-.29,1.45-.4-.65-.11-.88.15-1.45.4Z"/>
      <path class="cls-1" d="m328.06,134.14c0-.25,0-.51.04-.72q-.19.25-.04.72Z"/>
      <path class="cls-1" d="m330.17,134.14h.19v-.36h-.19v.36Z"/>
      <path class="cls-1" d="m109.37,133.41v.18h.38v-.18h-.38Z"/>
      <path class="cls-1" d="m110.13,133.31c.19.07.38.18.57.29,0-.11,0-.18.04-.25-.23-.04-.42-.04-.61-.04Z"/>
      <path class="cls-1" d="m279.05,133.41c.15-.07.31-.14.5-.22q-.38-.04-.5.22Z"/>
      <path class="cls-1" d="m321.55,133.41c.73-.61,1.11-.83,2.03-1.12-1-.18-1.76.25-2.03,1.12Z"/>
      <path class="cls-1" d="m329.59,133.05h-.38v.18h.38v-.18Z"/>
      <path class="cls-1" d="m287.28,133.05c.15-.07.31-.15.5-.22q-.38-.04-.5.22Z"/>
      <path class="cls-1" d="m290.34,133.05q.42-.11.65-.51c-.23.14-.46.32-.65.51Z"/>
      <path class="cls-1" d="m107.15,132.29c.23.11.46.25.69.4.42-.07.84-.11,1.3-.14q-1.15-.33-1.99-.25Z"/>
      <path class="cls-1" d="m288.43,132.33h-.38v.36h.38v-.36Z"/>
      <path class="cls-1" d="m106.92,131.65q-.42.14-.42.32h.57c-.08-.11-.12-.22-.15-.32Z"/>
      <path class="cls-1" d="m331.12,131.61v.36q.84-.11.84-.29-.38-.22-.84-.07Z"/>
      <path class="cls-1" d="m324.62,131.25v.33c.27-.15.55-.29.84-.44q-.07-.18-.84.11Z"/>
      <path class="cls-1" d="m324.23,131.79c.11-.06.22-.12.33-.18-.33,0-.33,0-.33.18Z"/>
      <path class="cls-1" d="m324.62,131.58s-.04.02-.05.03h.05v-.03Z"/>
      <path class="cls-1" d="m100.75,130.78c-.19,0-.38.04-.54.07-.04-.18-.04-.36-.04-.51q-1.19.07-1.72.29.57.36,2.49.97h.38s-.5-.58-.58-.83Z"/>
      <path class="cls-1" d="m94.82,131.43c.23-.07.46-.14.69-.21-.46-.22-.88-.43-1.3-.61-.11.47.27.58.62.83Z"/>
      <path class="cls-1" d="m331.89,131.25h.39v-.54q-.19,0-.39.54Z"/>
      <path class="cls-1" d="m271.62,130.49c-.04.18-.04.36-.04.58.2-.07.39-.14.58-.18-.08-.14-.12-.29-.15-.43-.15,0-.27,0-.38.04Z"/>
      <path class="cls-1" d="m124.3,147.56c-.04-.11-.04-.22-.04-.32.57.07,2.49.25,2.95-.04v-.51c-.42-.07-.8-.14-1.19-.22-.08-.14-.15-.29-.19-.43q-4.02-1.01-5.89-1.3c-.04-.11-.04-.22-.04-.32-2.34-.69-4.75-1.3-7.12-1.73-.27-.79-1.84-.72-2.64-.9-.65-.36-1.26-.72-1.88-1.04-3.91-.9-7.08-3.03-11.33-4.08.27.33.54.65.84.97-.23.14-.46.29-.69.43-.76-.36-1.19-.43-2.07-.43-.08-.18-.11-.36-.15-.5-.57-.29-1.15-.58-1.72-.87q.08-.4.42-.62c.54.11,1.11.21,1.68.36,0-.18,0-.32.04-.47-1.45-.87-7.05-2.49-7.35-3.76-1.34-.36-5.28-1.77-5.55-2.89-.5.11-1.91-.61-1.91-1.08-2.18-.62-4.02-2.2-6.05-3.39-.12.04-.23.07-.34.14v.69c-1.11-.18-5.32-2.74-5.63-3.65q-2.34-1.23-2.53-1.55c-.65.18-1.07-.79-1.3-1.19.19-.22.38-.43.61-.61-.69-.87-1.57-1.8-2.8-1.8.54.94,1.07,1.37,1.99,2.06-1.64-.29-4.17-2.78-5.59-3.75-.65-1.44-2.03-1.95-3.48-2.46.04.29.12.58.19.9.15-.04.31-.07.46-.11q.77.79,1.99,1.59c2.34,2.74,6.09,5.45,9.38,7.22.42.54.58.83,1.27,1.05,3.33,2.42,6.97,4.69,10.68,6.32v-.36c-.12-.04-.23-.04-.34-.04,0-.18.04-.36.08-.54-.5-.25-1.68-.29-1.68-.94,1.38,0,2.26.94,3.22,1.77-.38.11-.77.22-1.11.36,0,.15,0,.29.04.47,4.29,2.42,8.62,5.05,13.21,6.97.92.11,1.76-.07,1.91.98,1.42.54,3.6.9,4.52,2.06,4.44,1.8,10.91,5.74,16.01,5.23v-.32c-.54-.07-1.07-.15-1.61-.22-.11-.14-.19-.25-.27-.36.19-.14.38-.25.58-.36q4.67,1.3,6.82,2.17-1,.18-1.49.07c-.04-.11-.04-.21-.04-.32-.27.04-.54.07-.81.14-.54-1.12-3.06-.32-4.02-.25q-.04.18,1.34.33c.96,1.19,5.4,1.62,6.89,1.88,1.72,1.15,3.95.43,5.4,1.44q.23-.25.69-.25c-.04.14-.08.32-.12.5.12-.11.23-.18.38-.25v-.83c-.54.11-1.07.22-1.57.32-.58-1.12-1.88-.9-3.03-1.33Zm-41.36-16.68h-.38c-.15-.07-.27-.14-.38-.18v-.72h.38c0,.11,0,.22.04.33.11,0,.23,0,.34.04v.54Zm8.81,4.69c-.38-.07-.77-.14-1.15-.18-.23-1.08-2.18-1.45-3.18-2.02.65-.61,3.91,1.26,4.56,1.77q0,.32-.23.43Zm15.89,6.5c-.69.18-1.38.36-2.03.54.04-.54.34-.72.42-1.05-1.84-.5-3.56-1.51-5.36-1.95,0-1.73,6.05,1.73,6.97,2.09v.36Zm4.02,1.8c-.57-.18-1.15-.36-1.72-.54q.08-.4.34-.65.84.22,2.07.97c-.23.07-.46.14-.69.22Zm11.68,3.25h-1.92c-.42-.18-.5-.43-.57-.83q.73,0,2.49.47v.36Z"/>
      <path class="cls-1" d="m103.43,130.89h1.15v-.36h-1.15v.36Z"/>
      <path class="cls-1" d="m292.26,130.52v.36c.19-.07.38-.14.57-.18q0-.18-.57-.18Z"/>
      <path class="cls-1" d="m325.76,130.89q2.18-1.01,2.11-1.19-1.19.54-2.11,1.19Z"/>
      <path class="cls-1" d="m92.06,129.8c.38.22.8.47,1.22.72h.58q0-.18-1.76-1.01c-.04.07-.04.18-.04.29Z"/>
      <path class="cls-1" d="m332.08,130.52h.38v-.18h-.38v.18Z"/>
      <path class="cls-1" d="m85.05,124.93h.58v.36q.65.15,1.8.87c3.33,1.37,6.7,2.78,10.07,4.19h.57q.12-.43-.11-.94c-1.11-.29-2.22-.58-3.33-.87v-.36c-.88-.11-3.06-1.19-5.55-1.98v-.36c-.27-.07-.54-.14-.77-.18v-.36q-1.53-.47-3.14-.69c-.04.11-.08.22-.12.33Z"/>
      <path class="cls-1" d="m103.43,130.34c0-.11,0-.18.04-.25q-.19.04-.04.25Z"/>
      <path class="cls-1" d="m273.49,129.62v.72h.19v-.72h-.19Z"/>
      <path class="cls-1" d="m274.87,129.08c-.2.14-.39.32-.54.5.04.11.07.25.11.4.23-.11.5-.21.77-.29q-.31-.18-.34-.61Z"/>
      <path class="cls-1" d="m283.64,129.8c.19-.18.38-.33.57-.47-.15,0-.31,0-.46.04-.04.14-.08.29-.11.43Z"/>
      <path class="cls-1" d="m333.81,129.62h-.38v.18h.38v-.18Z"/>
      <path class="cls-1" d="m337.63,129.8c.08-.07.2-.14.31-.22q-.19-.04-.31.22Z"/>
      <path class="cls-1" d="m276.17,129.08h-.77q0,.18.39.18v.36q.23-.11.38-.54Z"/>
      <path class="cls-1" d="m330.28,128.25c-.15.11-.3.21-.46.36.04.14.07.29.15.47.07-.29.19-.58.3-.83Z"/>
      <path class="cls-1" d="m336.72,128.83c.04.07.08.14.15.25.15-.07.35-.11.54-.15q-.08-.14.5-1.3h-.46q-.42,1.05-.73,1.19Z"/>
      <path class="cls-1" d="m340.32,128.72c.38-.61,1.07-.97,1.65-1.66-.96-.18-1.49.97-1.65,1.66Z"/>
      <path class="cls-1" d="m281.23,127.85q-1.11.43-1.23.69c.61-.18.88-.22,1.23-.69Z"/>
      <path class="cls-1" d="m98.22,127.89c-.08.14-.12.29-.16.47q.23-.11.16-.47Z"/>
      <path class="cls-1" d="m331.12,128v.36h.19v-.36h-.19Z"/>
      <path class="cls-1" d="m283.07,128c.08-.07.19-.14.3-.22q-.19-.04-.3.22Z"/>
      <path class="cls-1" d="m332.81,127.6c-.27,0-.5,0-.73.04v.36c1.19-.54,2.41-1.08,3.64-1.62v-.36c.35-.11.69-.22,1.04-.29v-.43c-.04.11-.08.22-.12.33-.46.07-.88.14-1.3.22-.08.11-.12.25-.15.4-.8.29-1.57.58-2.33.87-.04.14-.04.32-.04.51Z"/>
      <path class="cls-1" d="m339.09,126.84c-.19.36-.35.76-.5,1.15.31-.07.61-.14.96-.18-.04-.33-.07-.65-.11-.97h-.34Z"/>
      <path class="cls-1" d="m97.11,127.17c-.34,0-.69,0-1.03.04-.04.14-.08.29-.12.43.12.04.23.11.38.18.31-.18.35-.43.77-.65Z"/>
      <path class="cls-1" d="m284.79,127.46c.08-.07.19-.14.31-.22q-.19-.04-.31.22Z"/>
      <path class="cls-1" d="m341.27,125.65c-.23.07-.42.14-.61.25-.12.4-.23.79-.35,1.19.61-.58,1.95-.76,2.18-1.41q-.27.22-1.19.29c-.04-.11-.04-.22-.04-.32Z"/>
      <path class="cls-1" d="m343.76,126.37h-.19v.36h.19v-.36Z"/>
      <path class="cls-1" d="m334.19,126.19c.23-.14.46-.29.69-.4-.12-.04-.23-.07-.35-.07-.11.14-.23.29-.34.47Z"/>
      <path class="cls-1" d="m343.95,125.65c.08-.07.19-.15.31-.22q-.19-.04-.31.22Z"/>
      <path class="cls-1" d="m290.92,125.47c.23-.11.5-.21.77-.29q-.38-.04-.77.29Z"/>
      <path class="cls-1" d="m335.53,125.47c.5-.4.99-.79,1.53-1.19q-.42,0-1.53.65v.54Z"/>
      <path class="cls-1" d="m337.75,125.29q-.15-.11-.31.18c.08-.07.19-.14.31-.18Z"/>
      <path class="cls-1" d="m338.75,124.35c-.15.04-.3.07-.42.14q-.23.58-.11.97.27-.11.88-1.44c.77,0,1.04-.07,1.68-.47q-.08-.18-1.88.21c-.08.18-.12.36-.15.58Z"/>
      <path class="cls-1" d="m342.61,125.11h.39v-.18h-.39v.18Z"/>
      <path class="cls-1" d="m90.79,124.75v.18h.76v-.18h-.76Z"/>
      <path class="cls-1" d="m318.11,124.75c.08-.07.19-.15.3-.22q-.19-.04-.3.22Z"/>
      <path class="cls-1" d="m337.44,124.03c.08-.07.19-.15.31-.22q-.19-.04-.31.22Z"/>
      <path class="cls-1" d="m344.91,123.49h.19v-.36h-.19v.36Z"/>
      <path class="cls-1" d="m348.55,123.13h.19v-.36h-.19v.36Z"/>
      <path class="cls-1" d="m86.96,122.48c.12.07.23.18.38.29.11-.07.23-.11.34-.14-.27-.07-.5-.11-.73-.14Z"/>
      <path class="cls-1" d="m345.87,122.76c.08-.07.19-.14.31-.22q-.19-.04-.31.22Z"/>
      <path class="cls-1" d="m343.99,120.96c-.54.4-1.03.79-1.53,1.19.04.15.08.29.15.43.96-.5,1.38-.54,1.38-1.62Z"/>
      <path class="cls-1" d="m347.48,121.46c-.27-.04-.5-.04-.73-.04-.12.32-.23.65-.31.97,1.23-.83,3.26-1.34,3.64-3.07-1.07.54-1.88,1.12-2.6,2.13Z"/>
      <path class="cls-1" d="m339.93,122.22h.38v-.18h-.38v.18Z"/>
      <path class="cls-1" d="m314.85,121.86v-.18h-.38v.18h.38Z"/>
      <path class="cls-1" d="m82.6,120.38c.5.25,1,.51,1.49.76.11-.07.23-.11.34-.15q-1.46-.65-1.84-.61Z"/>
      <path class="cls-1" d="m351.23,121.14q.38-.25.88-1.12-.19-.04-.88,1.12Z"/>
      <path class="cls-1" d="m352,121.14c.08-.07.19-.15.31-.22q-.19-.04-.31.22Z"/>
      <path class="cls-1" d="m316.19,118.79c-.23,0-.42.04-.61.07v.61c-.73.18-1.5.76-1.69,1.48,1.15-.54,2.11-.83,2.29-2.17Z"/>
      <path class="cls-1" d="m342.8,118.97q-.19,0-.19.72c.08.04.16.07.27.11-.11.11-.23.22-.35.32-.12-.07-.23-.14-.3-.18-.12.11.27.5-.38,1.01,1.72-.61,2.76-1.66,3.44-3.25-1.07.43-1.57,1.62-2.45,1.77-.04-.18-.04-.36-.04-.51Z"/>
      <path class="cls-1" d="m330.17,120.78h.38v-.18h-.38v.18Z"/>
      <path class="cls-1" d="m345.87,120.6c-.08-.11-.15-.22-.23-.29-.08.07-.12.18-.15.29h.38Z"/>
      <path class="cls-1" d="m351.04,118.97c-.15.04-.31.07-.46.11-.04.43-.07.87-.11,1.34q1.03-.65,1.42-1.16c-.23-.76-.12-.83.3-1.44q.54-.04.77.18c.42-.4.65-1.3.54-1.88-.54,1.23-1.88,1.59-2.45,2.85Z"/>
      <path class="cls-1" d="m352.76,120.42c.23-.25.46-.51.69-.72q-.16-.11-.69.72Z"/>
      <path class="cls-1" d="m331.7,120.06h.38c-.08-.11-.16-.22-.23-.29-.07.07-.11.18-.15.29Z"/>
      <path class="cls-1" d="m345.68,120.06c.19-.32.38-.61.57-.9h-.57v.9Z"/>
      <path class="cls-1" d="m339.36,119.88c.23-.07.5-.14.77-.18v-.36c-.27.04-.54.11-.77.18v.36Z"/>
      <path class="cls-1" d="m347.97,119.33c.08-.07.19-.14.31-.21-.12-.07-.23-.11-.31-.15v.36Z"/>
      <path class="cls-1" d="m316.96,118.07c-.08.29-.15.58-.19.9.53-.25.73-.25.84-.79-.23-.04-.46-.07-.65-.11Z"/>
      <path class="cls-1" d="m346.17,118.14q-.23.07-.69.83.27-.11.69-.83Z"/>
      <path class="cls-1" d="m350.73,118.25c-.12.18-.19.36-.27.54q.27-.11.27-.54Z"/>
      <path class="cls-1" d="m78.54,118.43c0-.11,0-.18.04-.25q-.19.04-.04.25Z"/>
      <path class="cls-1" d="m347.02,118.25h.38c-.08-.18-.15-.33-.23-.47-.08.14-.11.29-.15.47Z"/>
      <path class="cls-1" d="m343.38,118.07c.04-.14.08-.29.12-.4-.23-.07-.46-.11-.69-.14.04.18.12.36.19.54h.38Z"/>
      <path class="cls-1" d="m348.2,117.21c-.08.14-.15.32-.23.51q.27-.14.23-.51Z"/>
      <path class="cls-1" d="m351.54,117.49c-.12-.07-.23-.11-.31-.14v.36c.08-.07.19-.14.31-.22Z"/>
      <path class="cls-1" d="m354.49,117.53c.07-.07.19-.14.3-.22q-.19-.04-.3.22Z"/>
      <path class="cls-1" d="m346.83,116.99h-.38v.18h.38v-.18Z"/>
      <path class="cls-1" d="m353.07,116.41c-.15-.04-.27-.04-.38-.04-.11.14-.23.29-.31.43.23-.14.46-.29.69-.4Z"/>
      <path class="cls-1" d="m74.17,115.8c.12.14.23.29.35.47h.38q0-.18-.73-.47Z"/>
      <path class="cls-1" d="m354.49,115.58c-.19.22-.38.43-.58.69.19-.11.42-.22.65-.33-.04-.14-.07-.25-.07-.36Z"/>
      <path class="cls-1" d="m349.89,116.09c.15-.18.3-.36.46-.51-.11,0-.23,0-.31.04-.08.14-.11.29-.15.47Z"/>
      <path class="cls-1" d="m357.7,113.49c-.96.51-1.73,1.26-2.64,1.7.12.29.23.58.38.9h.38c.04-.14.08-.29.11-.4-.23-.11-.46-.18-.65-.25,1.07-.32,1.41-1.3,2.72-1.66.08-.32.19-.61.31-.9-.2-.07-.38-.14-.58-.18-.04.25-.04.51-.04.79Z"/>
      <path class="cls-1" d="m65.75,115.26c.65,1.05,3.14,3.03,4.48,3.21.04.11.08.25.15.4,3.6,2.02,6.89,4.51,10.8,5.99,1.22.9,3.48,2.24,4.94,2.63,1.26,1.52,3.91.61,5.05,2.13,0-.15,0-.29.04-.43-.92-.51-7.5-3.54-7.5-4.26-1.27-.14-9.38-4.55-9.38-5.23-1.69-.94-3.26-1.95-4.79-3.1.84-.25,8.04,4.55,9.11,5.16,1.76.9,4.06,2.64,6.13,2.64-.04-.22-.08-.43-.08-.62-1.95-.69-3.79-1.95-5.74-2.49-.04-.18-.04-.36-.04-.5-.58-.15-1.15-.29-1.69-.4-.04-.18-.04-.36-.04-.51-1.49-.72-3.98-2.63-5.78-2.63-.12-.25-.23-.47-.31-.68-1.49-.4-3.56-1.81-4.71-2.78-.04.18-.04.36-.04.54.5.25.96.39,1.11.9-.88-.51-1.76-.98-2.61-1.45-.27.58,0,2.09.88,1.48Zm2.95.51c.42.18.5.25.61.69h-.38c-.15-.07-.27-.14-.38-.18.04-.18.08-.36.15-.51Zm-.76-.33c.11.04.23.07.34.11-.19.04-.34.11-.5.18.04-.11.08-.22.15-.29Z"/>
      <path class="cls-1" d="m351.04,115.04c-.15.14-.27.32-.38.51q.31-.15.38-.51Z"/>
      <path class="cls-1" d="m326.26,115c.04-.11.12-.21.19-.29q-.23.07-.19.29Z"/>
      <path class="cls-1" d="m332.08,115c.08-.07.19-.14.3-.21q-.19-.04-.3.21Z"/>
      <path class="cls-1" d="m338.13,114.64c.54-.25,1.07-.51,1.61-.72-.08-.11-.15-.22-.2-.32q-1.45.83-1.42,1.05Z"/>
      <path class="cls-1" d="m350.85,114.64c.65-.51.92-.58,1.8-.65q-.04-.29.31-.97-.42.07-2.1,1.26v.36Z"/>
      <path class="cls-1" d="m72.03,114.28v.18h.58v-.18h-.58Z"/>
      <path class="cls-1" d="m61.96,112.4c0,.51.11.9.65,1.15h.77c-.31-.61-.57-1.15-1.42-1.15Z"/>
      <path class="cls-1" d="m324.81,113.56c.08-.14.19-.29.31-.4q-.19-.04-.31.4Z"/>
      <path class="cls-1" d="m333.92,112.95v.61c.3-.29.65-.58,1-.83-.12-.07-.19-.14-.27-.18q-.27.32-.73.4Z"/>
      <path class="cls-1" d="m58.01,108.51c.12,0,.23,0,.35.04.38.94,1.87,1.45,2.64,2.35.88.4,1.76.69,2.19,1.59.88.11.92.32,1.53.9.08-.14.19-.25.31-.36-.65-1.23-2.87-1.55-3.87-2.96-.88-.65-2.11-1.95-3.25-1.95.04.11.08.25.12.4Z"/>
      <path class="cls-1" d="m326.34,113.2h.19v-.36h-.19v.36Z"/>
      <path class="cls-1" d="m334.19,110.53q-.46.25-.92.87c.15.47.19,1.12.73,1.26.04-.72.12-1.44.19-2.13Z"/>
      <path class="cls-1" d="m335.34,112.66c.19-.18.42-.36.65-.51-.04-.32-.08-.61-.12-.9-.19.47-.38.94-.54,1.41Z"/>
      <path class="cls-1" d="m351.34,111.86c-.04.18-.08.4-.12.62q.46-.33.58-.72c-.16.04-.31.07-.46.11Z"/>
      <path class="cls-1" d="m354.87,112.48c0-.11.04-.18.08-.25q-.19.04-.08.25Z"/>
      <path class="cls-1" d="m346.44,112.3c.08-.07.19-.14.31-.22q-.19-.04-.31.22Z"/>
      <path class="cls-1" d="m352.19,111.94v.18h.39v-.18h-.39Z"/>
      <path class="cls-1" d="m312.94,111.75c.08-.07.19-.14.31-.22q-.19-.04-.31.22Z"/>
      <path class="cls-1" d="m337.63,111.21c.35-.43.69-.87,1.04-1.3-.11-.04-.19-.07-.27-.11-.27.47-.54.94-.77,1.41Z"/>
      <path class="cls-1" d="m67.01,110.85v.18h.57v-.18h-.57Z"/>
      <path class="cls-1" d="m328.79,110.6q-.38.14-.42.43c.61-.4.8-1.08,1.61-1.08,0-.25.04-.51.07-.76-1.04,0-1.11.69-1.26,1.41Z"/>
      <path class="cls-1" d="m360.23,111.03q.19,0,.19-.54c-.12.03-.23.07-.35.11.04.14.08.29.16.43Z"/>
      <path class="cls-1" d="m50.28,106.85c.15-.18.34-.33.53-.47,0-.54-.27-1.01-.92-1.01-.08.29-.15.62-.23.94-1.76-.94-3.14-4.37-5.32-4.37q0,.83.27,1.34c1.57.72,2.45,2.31,3.98,2.92.15.79,1.19.94,1.19,1.59.92.07,2.49,2.46,3.45,2.89h.58c.04-.14.08-.29.11-.39-1.22-1.01-2.56-2.27-3.63-3.43Z"/>
      <path class="cls-1" d="m330.17,110.67c.07-.14.19-.29.3-.39q-.19-.04-.3.39Z"/>
      <path class="cls-1" d="m335.53,110.13c.12.04.23.11.38.18h.38c0-.22.04-.43.08-.61-.31,0-.57.04-.84.07v.36Z"/>
      <path class="cls-1" d="m361.76,110.31q.46-.14,1.34,0c.16-.43.31-.87.5-1.26.19.04.42.11.65.18-.04-.25-.07-.51-.07-.76.23-.04.46-.07.73-.11.23-.65.5-1.3.76-1.91h-.46c-1.03,1.41-2.34,2.46-3.45,3.86Z"/>
      <path class="cls-1" d="m66.63,109.95h-.38v.18h.38v-.18Z"/>
      <path class="cls-1" d="m364.25,110.13c.08-.07.2-.14.31-.22q-.19-.04-.31.22Z"/>
      <path class="cls-1" d="m330.93,109.95h.39v-.18h-.39v.18Z"/>
      <path class="cls-1" d="m359.08,109.77c.58-.61.12-1.16,1.04-1.66-1.11-.18-1,.94-1.04,1.66Z"/>
      <path class="cls-1" d="m338.59,109.59c.08-.07.19-.14.31-.22q-.19-.04-.31.22Z"/>
      <path class="cls-1" d="m334.95,105.98c-.15,0-.3.04-.42.07-.42.57-1.19,1.26-1.88,1.55-.04.22-.08.43-.11.69-.23-.18-.46-.33-.65-.47q-.92,1.05-1.15,1.59c1.69-.79,3.75-1.62,4.21-3.43Z"/>
      <path class="cls-1" d="m342.23,109.41h.19v-.36h-.19v.36Z"/>
      <path class="cls-1" d="m343.76,109.41c.15-.07.3-.14.46-.22-.15-.07-.31-.11-.46-.14v.36Z"/>
      <path class="cls-1" d="m64.91,108.87h-.38v.36h.38v-.36Z"/>
      <path class="cls-1" d="m365.97,109.05c.54-.29.69-.62,1.42-.87q0-.44-.27-.9c-.69.65-1.03.83-1.15,1.77Z"/>
      <path class="cls-1" d="m63.38,108.15c0-.11.04-.18.08-.25q-.19.04-.08.25Z"/>
      <path class="cls-1" d="m342.04,107.6v.36h.38c-.04-.11-.04-.22-.04-.32-.11-.04-.23-.04-.34-.04Z"/>
      <path class="cls-1" d="m371.18,107.96h.38c-.08-.11-.15-.22-.23-.29-.08.07-.12.18-.16.29Z"/>
      <path class="cls-1" d="m57.55,107.6c-1.61-1.48-3.22-3.28-5.25-4.22-1.26-3.03-6.36-4.58-8.16-7.54-1.49-.9-2.41-2.67-4.02-3.43q-.38-.72-7.28-8.12c-.5-1.12-2.79-3.65-4.21-3.65-.23,2.45,2.18,1.99,2.76,3.86.31,0,.61,0,.92.04,0,.14,0,.32.04.5.12,0,.23,0,.35.04,0,.11,0,.22.04.32,1.15.4,2.91,2.46,3.06,3.61.31.11.61.25.92.4.12.18,5.48,6.14,5.94,6.14.19.51,3.64,3.79,4.02,3.79,0,.11,0,.22.04.32.15,0,.34,0,.54.04.88,1.88,1.53,2.56,2.99,3.9.38.83,1.84,1.3,1.84,1.84.15,0,.34,0,.54.03,0,.14,0,.33.04.51.38.04.77.11,1.15.18.04-.25.08-.5.11-.72q1.19.61,3.33,2.34c.08-.07.19-.14.31-.18Z"/>
      <path class="cls-1" d="m346.44,107.78c.16-.14.31-.29.5-.4-.15-.04-.27-.04-.38-.04-.04.14-.08.29-.12.43Z"/>
      <path class="cls-1" d="m62.8,107.06c-.27-.04-.54-.07-.8-.11-.08.14-.12.29-.15.47.38-.04.77,0,.96-.36Z"/>
      <path class="cls-1" d="m370.57,107.42c1.11-.51,1.77-1.44,2.15-2.49-1.34.76-1.57,1.01-2.15,2.49Z"/>
      <path class="cls-1" d="m370.07,104.1h-.34c-.12.4-.23.61-.65.72-.08-.21-.15-.43-.23-.61-1.11,1.05-1.8,1.05-2.3,2.67.11.04.23.11.38.18.8-.94,1.22-1.34,2.38-1.91.04.07.08.18.11.29.35-.04.73-.08,1.11-.11-.15.32-.3.65-.46,1.01.08.03.19.11.31.18,0-.18.04-.36.08-.54.8-.29,2.83-2.17,3.1-3-.65.68-2.14,1.77-3.1,1.95q.07-.14-.38-.83Z"/>
      <path class="cls-1" d="m61.46,106.52h.38v-.18h-.38v.18Z"/>
      <path class="cls-1" d="m363.1,106.52c.16-.25.31-.5.5-.76-.07-.11-.11-.22-.15-.29-.12.33-.23.69-.35,1.05Z"/>
      <path class="cls-1" d="m369.23,106.34c.08-.07.19-.15.3-.22q-.19-.04-.3.22Z"/>
      <path class="cls-1" d="m335.8,105.44c-.12.21-.19.47-.27.72.15-.07.31-.14.5-.18-.08-.18-.15-.36-.23-.54Z"/>
      <path class="cls-1" d="m60.5,105.8v.18h.57v-.18h-.57Z"/>
      <path class="cls-1" d="m349.31,105.8c.27-.25.54-.47.84-.69-.04-.14-.04-.29-.04-.4-.27.47-.69.65-.81,1.08Z"/>
      <path class="cls-1" d="m58.21,104.54c.16-.07.31-.14.5-.18-.11-.04-.23-.07-.34-.11-.08.07-.12.18-.16.29Z"/>
      <path class="cls-1" d="m370.57,103.99c.16-.14.35-.29.54-.4-.12-.04-.23-.04-.35-.04-.07.14-.15.29-.19.43Z"/>
      <path class="cls-1" d="m375.39,103.63h.38v-.18h-.38v.18Z"/>
      <path class="cls-1" d="m353.41,102.91c.08.18.19.36.31.54q.65-.51,2.41-2.56c-.96-.29-2.3,1.34-2.72,2.02Z"/>
      <path class="cls-1" d="m374.05,103.45c.12-.11.27-.22.42-.33q-.04-.18-.42.33Z"/>
      <path class="cls-1" d="m372.48,102.98v-.72c-.11.32-.23.65-.34,1.01.12-.11.23-.22.34-.29Z"/>
      <path class="cls-1" d="m375.81,102.77c-.08.14-.15.33-.23.51q.23-.14.23-.51Z"/>
      <path class="cls-1" d="m376.96,99.84c.08.11.15.21.27.32-.61.69-1.42.61-1.96,1.26.08.07.19.14.31.22-.08.29-.15.58-.19.9.69-1.01,1.84-1.7,2.49-2.71-.23-.11-.42-.22-.61-.33-.11.11-.23.22-.31.33Z"/>
      <path class="cls-1" d="m379.07,102.41v-.4c-.15.18-.31.36-.42.54.12-.07.27-.11.42-.14Z"/>
      <path class="cls-1" d="m53.42,102.01c.73-.07,1.45-.15,2.22-.22-1.07-.69-1.3-.43-2.22.22Z"/>
      <path class="cls-1" d="m372.14,101.83c.08-.25.19-.51.31-.76q-.19-.04-.31.76Z"/>
      <path class="cls-1" d="m374.17,100.71c-.12-.04-.23-.04-.31-.04-.11.25-.23.5-.34.79q.19.04.34.36h.39c-.15-.4-.42-.79-.08-1.12Z"/>
      <path class="cls-1" d="m374.82,101.29h.38v-.18h-.38v.18Z"/>
      <path class="cls-1" d="m378.46,99.84c.35-.51,1.72-.76.96-1.59-.11.44-.61.9-.96,1.59Z"/>
      <path class="cls-1" d="m51.51,99.12v.18h.38v-.18h-.38Z"/>
      <path class="cls-1" d="m376.73,98.4v.54h.19v-.54h-.19Z"/>
      <path class="cls-1" d="m382.51,97.53c0-.25,0-.51.04-.76-.23.36-.46.72-.65,1.08.2-.11.38-.22.61-.32Z"/>
      <path class="cls-1" d="m49.4,97.32h.38c-.08-.11-.15-.22-.23-.29-.08.07-.12.18-.15.29Z"/>
      <path class="cls-1" d="m382.86,96.96q.38-.11.88-.76c-.31.11-.62.25-.88.4v.36Z"/>
      <path class="cls-1" d="m47.68,96.78c.27-.07.57-.14.88-.22q-.31-.07-.88.22Z"/>
      <path class="cls-1" d="m361.57,96.23c1-.36,1.15-.29,1.53-1.27-.15.04-.3.07-.46.11-.23.58-.46.79-1.07,1.16Z"/>
      <path class="cls-1" d="m381.14,95.69c.96-.9,1.91-1.8,2.91-2.67v-.58c-1.15.76-2.61,1.88-2.91,3.25Z"/>
      <path class="cls-1" d="m384.97,95.51c.3-.07.61-.14.96-.18.42-.83,1-1.3,1.34-2.17-.92.25-1.8,1.62-2.29,2.35Z"/>
      <path class="cls-1" d="m47.1,94.97c-.19.04-.38.07-.54.11.04.07.08.14.15.25h.38v-.36Z"/>
      <path class="cls-1" d="m365.17,93.99c-.42.14-.85.22-.54.79.42-.61,1.07-.29.65-1.26-.04.14-.07.29-.11.47Z"/>
      <path class="cls-1" d="m45.8,93.99c.04.07.08.14.15.25.04-.14.11-.25.19-.36-.11.04-.23.07-.34.11Z"/>
      <path class="cls-1" d="m388.03,93.16c.38-.25.76-.5,1.15-.72.04-.25.07-.51.11-.76-.19-.04-.38.33-1.42.87.04.18.08.4.16.61Z"/>
      <path class="cls-1" d="m41.86,90.75c-.04.14-.08.29-.12.43.23.04.5.11.77.18.04-.04.08-.07.12-.11q-.42-.51-.77-.51Z"/>
      <path class="cls-1" d="m390.56,90.13c-.07.14-.15.32-.23.51q.23-.14.23-.51Z"/>
      <path class="cls-1" d="m40.97,90.46c.19-.11.38-.22.57-.29q-.46.04-.57.29Z"/>
      <path class="cls-1" d="m40.59,89.19h-.96v.18h.96v-.18Z"/>
      <path class="cls-1" d="m39.44,88.29v-.18h-.57v.18h.57Z"/>
      <path class="cls-1" d="m37.34,87.03v.54q.73.07,1.15.36h.38c-.34-.54-.65-1.23-1.53-.9Z"/>
      <path class="cls-1" d="m36.38,85.95h.38c-.08-.11-.15-.22-.23-.29-.08.07-.12.18-.15.29Z"/>
      <path class="cls-1" d="m3.83,48.41h.96q0-.18-.77-.18v-.4q-.19,0-.19.58Z"/>
      <path class="cls-1" d="m4.4,48.04v-.4h-.19v.4h.19Z"/>
      <path class="cls-1" d="m5.36,47.83v.22h.19v-.22h-.19Z"/>
      <path class="cls-1" d="m4.02,47.47c.08-.07.19-.15.31-.22q-.19-.04-.31.22Z"/>
      <path class="cls-1" d="m2.49,45.3c.08-.07.19-.14.31-.22-.11-.07-.23-.11-.31-.14v.36Z"/>
      <path class="cls-1" d="m.35,36.71c-.08.07-.12.18-.16.29h.38c-.08-.11-.15-.22-.23-.29Z"/>
      <path class="cls-1" d="m424.22,29.42v-.18h-.38v.18h.38Z"/>
      <path class="cls-1" d="m.57,29.06H.19v.18h.38v-.18Z"/>
      <path class="cls-1" d="m424.98,28.52c-.12.04-.23.07-.35.11.04.07.08.14.15.25.04-.14.12-.25.19-.36Z"/>
      <path class="cls-1" d="m415.41,27.61c.08-.18.16-.36.23-.5.11-.04.23-.04.34-.04v-.36c-.23.07-.46.18-.65.29,0,.18.04.4.08.61Z"/>
      <path class="cls-1" d="m416.52,26.24c-.07.22-.11.43-.15.65q.15-.11.15-.65Z"/>
      <path class="cls-1" d="m417.02,25.09c-.11.18-.19.36-.27.54q.23-.11.27-.54Z"/>
      <path class="cls-1" d="m431.3,25.63c.08-.07.19-.14.3-.22q-.19-.04-.3.22Z"/>
      <path class="cls-1" d="m.38,24.55h-.19v.36h.19v-.36Z"/>
      <path class="cls-1" d="m418.28,24.55c-.08-.18-.15-.33-.23-.47-.08.14-.12.29-.15.47h.38Z"/>
      <path class="cls-1" d="m.38,22.92h-.38v.18h.38v-.18Z"/>
      <path class="cls-1" d="m.38,22.56h-.38v.18h.38v-.18Z"/>
      <path class="cls-1" d="m401.43,21.84v-.36q-.46.11-.58.36h.58Z"/>
      <path class="cls-1" d="m404.69,20.58c.12-.04.27-.07.42-.11.12.15.23.29.35.47h1.34q0-.18-2.11-.9v.54Z"/>
      <path class="cls-1" d="m397.22,20.21c.08-.07.19-.14.31-.18-.04-.15-.08-.25-.12-.36-.19.04-.38.11-.54.18.11.11.23.22.34.36Z"/>
      <path class="cls-1" d="m428.24,20.21c.04-.14.12-.25.19-.36-.12.04-.23.07-.34.11.04.07.07.14.15.25Z"/>
      <path class="cls-1" d="m430.35,18.95h.19v-.36h-.19v.36Z"/>
      <path class="cls-1" d="m414.45,18.77c1.04-.29,1.69-.97,2.76-.97.15,1.52,2.26.25,2.99.07.04-.18.08-.32.12-.47q.15.07.84-.25c-.69-2.45-5.32.65-6.59,1.01-.04.18-.07.4-.12.61Z"/>
      <path class="cls-1" d="m190.55,17.51v.54c.73-.22,1.46-.4,2.22-.58-.19-.22-.34-.43-.5-.61-.5.22-.69.04-1.15-.18-.42.14-.84.29-1.26.43q0,.18.69.4Z"/>
      <path class="cls-1" d="m194.57,17.69c-.04-.14-.08-.29-.11-.43q.31-.22-1.34.25c.08.11.19.22.31.36.38-.07.77-.14,1.15-.18Z"/>
      <path class="cls-1" d="m406.99,17.87c.15-.07.31-.11.5-.14-.04-.15-.08-.29-.11-.4h-.38v.54Z"/>
      <path class="cls-1" d="m171.21,16.97c.19.04.42.11.65.18q-.27.18-.27.54c.15-.04.31-.07.46-.11.08-.18.15-.36.23-.54.16.04.31.07.46.11v-.54c-.73.07-.8,0-1.26-.43h-.46q.27.36.19.8Z"/>
      <path class="cls-1" d="m177.72,17.33v.36c.34-.18.69-.33,1.03-.47v-.83c-.34-.11-.92.58-1.42.76q0,.18.38.18Z"/>
      <path class="cls-1" d="m207.51,17.25c-.04.15-.08.29-.12.43.15-.14.31-.29.5-.4-.16-.04-.27-.04-.38-.04Z"/>
      <path class="cls-1" d="m175.23,17.51v-.65c-.19.07-.34.18-.5.29.16.11.31.22.5.36Z"/>
      <path class="cls-1" d="m196.22,16.93c-.42,0-.84,0-1.26.04.04.18.12.36.19.54.34-.22.69-.4,1.07-.58Z"/>
      <path class="cls-1" d="m196.29,17.51c.19-.11.38-.22.58-.29q-.46.04-.58.29Z"/>
      <path class="cls-1" d="m166.88,16.53c.27-.11.54-.22.8-.32-.88-.11-3.37.36-3.75,1.12.96-.18,1.95-.32,2.95-.47v-.32Z"/>
      <path class="cls-1" d="m181.67,17.11q-.46-.18-.61-.5c-.08.11-.15.22-.19.36.15.11.31.21.5.36.08-.07.19-.14.31-.22Z"/>
      <path class="cls-1" d="m184.31,16.71c-.23-.03-.46-.07-.65-.11-.12.5-.23.43-.38.72.38-.07.77-.14,1.15-.18-.04-.14-.08-.29-.12-.43Z"/>
      <path class="cls-1" d="m185.49,16.75c-.3-.07-.61-.11-.88-.14.04.22.12.47.19.72.23-.22.46-.4.69-.58Z"/>
      <path class="cls-1" d="m173.7,16.97h-.38v.18h.38v-.18Z"/>
      <path class="cls-1" d="m174.77,16.75c-.19-.07-.35-.11-.5-.14-.08.18-.15.36-.19.54q.46-.11.69-.4Z"/>
      <path class="cls-1" d="m176.84,17.04c.08-.18.15-.33.23-.47-.5-.07-1-.11-1.46-.14.11.22.23.47.38.72.27-.04.54-.07.84-.11Z"/>
      <path class="cls-1" d="m407.18,17.15h1.15q0-.18-1-.29c-.08.07-.12.18-.15.29Z"/>
      <path class="cls-1" d="m152.52,16.24c-.12.22-.19.47-.27.72q.58-.25,1.68-.33c-.11.07-.23.15-.34.22.73,0,1.45-.4,2.03-.83-.77-.07-1.84.4-.69-.43-.96.18-2.3.22-3.29.18q-.08.29.19.76.42-.36.69-.29Z"/>
      <path class="cls-1" d="m168.72,16.79h-.39v.18h.39v-.18Z"/>
      <path class="cls-1" d="m170.18,16.17h-1.45c.19.25.38.51.57.8.54-.14,1.07-.07.88-.8Z"/>
      <path class="cls-1" d="m409.67,16.79h-.38v.18h.38v-.18Z"/>
      <path class="cls-1" d="m158.76,16.79c.27-.11.54-.22.84-.29-.04-.25-.08-.5-.08-.72-.38.07-.73.14-1.07.25.04.07.12.18.19.29-.12.04-.19.11-.27.18.11.07.23.18.38.29Z"/>
      <path class="cls-1" d="m162.59,16.42v.36c.15-.08.31-.15.46-.22-.15-.07-.31-.11-.46-.14Z"/>
      <path class="cls-1" d="m147.09,16.61c.08-.11.15-.18.27-.25-.08-.14-.12-.25-.15-.36-.23-.04-.46-.07-.69-.11v.36q.38.11.57.36Z"/>
      <path class="cls-1" d="m151.11,16.32c-.76-.29-1.22-.36-2.03-.25.23.18.46.36.69.54.42-.11.88-.22,1.34-.29Z"/>
      <path class="cls-1" d="m157.42,16.61c-.08-.29-.15-.58-.19-.83-.19.04-.38.11-.54.18.11.22.23.43.34.65h.38Z"/>
      <path class="cls-1" d="m181.93,16.42h-.38v.18h.38v-.18Z"/>
      <path class="cls-1" d="m421.77,16.17c-.15-.04-.31-.07-.42-.11.04.18.12.36.19.54q.23-.11.23-.43Z"/>
      <path class="cls-1" d="m145.36,16.42c.15-.18.31-.36.46-.51q-.34.14-.46.51Z"/>
      <path class="cls-1" d="m148.43,16.06h-.38v.36h.38v-.36Z"/>
      <path class="cls-1" d="m164.05,16.17c-.04.07-.08.15-.12.25.31-.11.61-.22.96-.29-.31,0-.57,0-.84.04Z"/>
      <path class="cls-1" d="m410.05,15.88c-.12.04-.23.07-.35.11.04.07.07.14.15.25.04-.14.12-.25.19-.36Z"/>
      <path class="cls-1" d="m135.1,15.34c-.12.18-.19.36-.27.54q.23-.11.27-.54Z"/>
      <path class="cls-1" d="m139.04,15.88c.19-.11.38-.22.57-.29q-.46.04-.57.29Z"/>
      <path class="cls-1" d="m141.72,15.52h-.19v.36h.19v-.36Z"/>
      <path class="cls-1" d="m142.95,15.34c-.11.18-.19.36-.27.54.15-.07.31-.14.5-.18-.08-.14-.15-.25-.23-.36Z"/>
      <path class="cls-1" d="m137.9,15.52c.11-.33.23-.61.38-.9-.96.22-1.88.43-2.8.69.27.11.58.25.88.4.5-.07,1-.14,1.53-.18Z"/>
      <path class="cls-1" d="m140.92,15.23c-.12.15-.23.29-.35.47.23-.14.46-.29.69-.4-.12-.04-.23-.07-.34-.07Z"/>
      <path class="cls-1" d="m150.34,15.52h-.38v.18h.38v-.18Z"/>
      <path class="cls-1" d="m411.58,15.34h-.19v.36h.19v-.36Z"/>
      <path class="cls-1" d="m144.98,15.16v.36c.23-.07.5-.14.76-.18q0-.18-.76-.18Z"/>
      <path class="cls-1" d="m423.61,15.38c-.42-.04-.85-.07-1.27-.11.04.07.08.14.15.25.35-.07.73-.11,1.12-.14Z"/>
      <path class="cls-1" d="m130.24,15.16h-.38v.18h.38v-.18Z"/>
      <path class="cls-1" d="m132.46,14.4q-.31-.25-.57-.22c0,.11.04.22.08.33-.46.11-.92.25-1.34.4q.12.14-.19.43,1.76-.65,2.03-.94Z"/>
      <path class="cls-1" d="m133.45,14.51c-.19.22-.38.43-.54.65q.73-.07,1.26-.4c-.27-.11-.5-.18-.73-.25Z"/>
      <path class="cls-1" d="m413.69,14.8v-.36h-.19v.36h.19Z"/>
      <path class="cls-1" d="m125.07,14.44c.23-.21.46-.4.69-.58q-.38-.04-1.07.29c.12.08.23.18.38.29Z"/>
      <path class="cls-1" d="m127.37,13.72h-.38c-.08.22-.15.47-.19.72q.42-.25.58-.72Z"/>
      <path class="cls-1" d="m129.28,14.26c.08-.07.19-.14.31-.22q-.19-.04-.31.22Z"/>
      <path class="cls-1" d="m131,14.08h-.38v.18h.38v-.18Z"/>
      <path class="cls-1" d="m413.88,13.54q-.96.18-.96.36h.96v-.36Z"/>
      <path class="cls-1" d="m428.81,13.9q1.76-.47,2.03-.76c-.61,0-1.22,0-1.84.04-.08.22-.15.47-.19.72Z"/>
      <path class="cls-1" d="m140.15,55.57h-5.35l-1.59,7.54h5.37c.35,0,.69-.11,1.06-.34.38-.24.74-.58,1.05-1.02.32-.44.59-.97.79-1.56.2-.59.3-1.23.3-1.9,0-.86-.18-1.55-.53-2.05-.32-.45-.68-.67-1.1-.67Z"/>
      <path class="cls-1" d="m427.67,18.95c-.99.07-2.34.43-4.6.72-.04.11-.08.21-.08.32-.69.22-1.53.22-1.95.83.08.11.15.22.23.36-.3.18-.61.4-.92.62-.04-.18-.04-.36-.04-.54-.84-.11-1.64-.18-2.45-.25-.5.58-3.03,1.62-3.83,1.62q-.08-.14.23-.36-.38-.18-1.76-.11c-.04-.11-.08-.22-.11-.29.34-.29,1.3-.51,1.91-.87.31-.47.61-.9.92-1.33q-.54-.25-1.53-.18c-.11.25-.19.5-.27.79-.88-.54-2.22.65-3.21.54-.73,1.37-4.02,1.55-5.67,1.7.08-.11.2-.22.31-.29-.73-.39-1.34-.47-2.06.04.15.11.31.22.5.36-.12.11-.23.22-.31.36-.8,0-1.15-.22-1.84-.58-1.65.61-2.03,1.26-3.95.58-.69.14-1.38.29-2.03.43-.04-.11-.04-.22-.04-.32-.12-.04-.23-.04-.34-.04-.08-.29-.15-.58-.19-.83.5-.25.58-.47.65-1.05.27-.04.54-.04.8-.04-.92-.87-1.69-1.05-2.91-1.19q-.23.58-.54.76c-.12-.07-.19-.14-.27-.21q.3-.11.3-.47c-.34.04-.65.11-.96.18-.04.18-.04.4-.04.62-1,.11-1.27.65-2.14.76-.42.83-.96,1.3-1.99,1.12-.07-.29-.15-.58-.19-.83.92-.25,1.15-.29,1.65-1.01q.57-.04.96.18c.96-1.34,1.95-1.7,3.68-2.09,0-.18,0-.36.04-.5,1.38-.4,4.83-1.23,6.05-.47q.65-.36.84-.79h.65c0,2.2-2.41,1.73-2.76,3.1.16.25.31.5.46.76.84-.79,2.6-.79,3.83-.97v.29c-.2.04-.38.07-.54.11q-.12.25.07.83h1.3c-.08-.32-.15-.61-.19-.9-.12-.04-.23-.04-.35-.04.46-.9,1.49-1.08,2.49-1.48q0-.54-.35-.9c1.38-.58.15-1.12.27-1.98.92-.47,1.88-.94,2.83-1.41-.96-.47-2.11-.18-2.99-.79.07-.22.19-.43.3-.61-.07-.11-.15-.18-.23-.25.54-.4,1.46-.43,2.22-.94-1.34-.29-2.64.11-3.56-1.12-.08.22-.12.43-.15.65-.23,0-.46,0-.69.04-.07.29-.15.58-.19.9.27-.04.58-.07.88-.07-2.11,1.98-6.44.83-8.12,3.65h-1.72v-.29q1.11-.14,1.72-.5v-.5c-.96-.25-1.92-.5-2.87-.76.3-.15.61-.25.96-.36.04-.29.08-.54.15-.79-1.19.07-2.61.15-3.48.97-.62,0-1.04-.14-1.26-.76.23-.11.5-.22.77-.32q0-.33-.35-.54,1.26-.54,2.37-1.3c-.84-1.59-4.94-1.62-6.16-.47.08.58.16,1.16.23,1.77-.38,0-.73.04-1.07.07-.04-.11-.04-.22-.04-.32h-.84c-.04-.11-.08-.22-.08-.32.23-.07.46-.15.73-.22-.12-.69.04-.76.31-1.37.08.07.15.14.27.21v-.65c-.61.07-1.11.54-2.07.87.15-1.59.54-1.55,2.26-1.66,0-.22,0-.43.04-.61.12-.04.23-.04.34-.04.12-.65.57-.69.77-1.26h-.77c-.04.11-.08.22-.08.33-.38-.11-.77-.18-1.11-.25-1.57.97-3.18.9-4.9.61-.15-.29-.31-.58-.42-.87q-.42-.11-.69.14c-.04-.11-.08-.22-.08-.33-.19-.04-.38-.04-.54-.04-.04-.11-.04-.22-.04-.33-.12-.04-.23-.04-.34-.04-.04-.11-.04-.22-.04-.33q-1.03-.07-3.48.33c-.08-.18-.11-.36-.15-.5-1.26-.33-2.14-.4-3.45-.4.31-.72.54-.94,1.26-1.26-1.26-.14-2.45.29-3.79.04-.04.11-.04.22-.04.33-.88.11-1.76.22-2.6.36-.04-.11-.04-.22-.04-.33-.35-.07-.65-.14-.96-.18-.04.14-.04.32-.04.51-.19,0-.38,0-.54.03-.15.36-.27.76-.38,1.16-.65.14-1.11.29-1.34-.43h-.38c-.12.18-.19.4-.27.62q-.76-.36-1-.72c.35-.72.54-1.3,1-2.06-.04-.15-.08-.25-.11-.36-1.04.04-3.87-.04-4.25,1.05-.5-.04-.96-.07-1.42-.11-.54.25-1.49.87-2.07.69,0-1.12-1.07-1.34-1.07-1.98-1.61-.15-2.57.18-4.1.79-.85-1.19-4.63.94-5.48,1.8-2.3.72-4.6,1.44-6.89,2.17,0-2.06,3.79-1.66,4.98-3.43-1.61.36-3.22.72-4.83,1.08-1.69.65-3.41,1.41-5.21,1.66-.08.11-.15.25-.23.4-1-.11-1.91.22-2.95.22-.04.11-.04.22-.04.32-3.33,1.05-7.39,1.34-10.91,1.55-.11.07-.19.18-.27.29h-.84c-.04.11-.04.22-.04.33-.61.29-1.65-.18-2.26-.33-.04.11-.08.22-.12.33q-1.99-.25-2.87-.18c0,.11.04.22.08.36-1.45.11-2.41.32-3.76.54-.07-.11-.15-.22-.19-.32-.69.11-2.14.65-2.72.54-.04.11-.04.22-.04.33-.19-.04-.38-.07-.54-.07-.15-.21-.27-.43-.38-.61h-.38c-.04.14-.08.33-.11.51-.65-.07-1.31-.15-1.96-.18-.04-.11-.04-.22-.04-.33-.5.18-1,.4-1.45.61-1.88-.65-5.17.29-6.44-.9-.07.14-.15.29-.23.43q-1.07-.07-1.3-.25c-.42.36-.8.72-1.19,1.08-.04-.22-.08-.43-.12-.62-.31-.03-.58-.07-.84-.07-.15.32-.27.69-.38,1.05-.57-.14-1.11-.29-1.64-.43-.27,1.19-3.95.76-4.83.61-.11.18-.19.4-.27.61-.27.04-.53.11-.8.18-.04-.18-.04-.36-.04-.51q-.61.07-3.1-.47c-.23.36-.46.76-.65,1.16-.5,0-.95,0-1.41.04-.08.15-.16.29-.23.43q-.96,0-2.03.25-.19-.4-.61-.5c-.04.14-.08.32-.12.5h-.8c-.08-.14-.15-.29-.19-.4-.23,0-.46,0-.65.04-.12-.18-.23-.36-.3-.5-.12.14-.23.33-.31.5h-.84c-.04-.11-.04-.22-.04-.32-.46.07-.92.15-1.34.25-.08-.14-.15-.29-.19-.43h-.96c-.08.14-.15.33-.19.5-.27.04-.5.11-.73.18-.04-.11-.04-.22-.04-.32-.35-.07-.65-.14-.96-.18q-.19.5-.8.97-.23-.07-.34-.43c-.69.29-1.95.51-2.18,1.23-.61,0-5.13-.36-5.44.54-.84,0-1.15-.22-1.99-.25-1.23,1.16-3.06,1.08-4.75,1.01-.04.11-.08.22-.08.33q-.88-.07-1.88-.43c-.19.18-.38.4-.57.61-.08-.11-.12-.22-.15-.33-1.15-.18-2.64,1.73-4.02.43-.46.36-2.87.51-3.41.43-.04-.11-.04-.22-.04-.32-.69.07-1.34.18-1.99.29-.08.11-.15.25-.19.39-1.61-.54-5.13-.65-6.47.18-.16-.14-.27-.29-.38-.43-.07.07-.15.14-.23.25-2.99-.47-6.62-.04-9.61-.04-.08.11-.12.25-.15.4h-.5c-.11-.14-.19-.29-.27-.43-.08.18-.15.4-.19.61h-.5c-.12-.22-.23-.4-.31-.58-.65.04-3.45-.32-3.64.5-.08-.18-.15-.36-.23-.5-.15-.04-.31-.07-.46-.11-.12.14-.19.29-.27.43-.04-.11-.08-.18-.12-.25-1.03.14-2.11-.22-3.14.07-.04-.11-.08-.18-.12-.25-.73,0-1.46.04-2.14.07-.15.18-.27.4-.38.61q-1.15-.07-1.68.14c.15.51-.54.54-.92.58,0-.61.27-.72.73-1.15h-.65c-.04-.11-.08-.18-.12-.25-.61.22-.73.22-1.07.69q-.34-.14-.58-.58c-.92-.04-1.84-.07-2.76-.11q-.11.54-.38.61c-.04-.25-.08-.47-.12-.69-1.04-.07-2.07-.11-3.06-.14.04.07.11.18.19.29-2.76,1.81-8.5.9-11.95.9-.04-.15-.08-.25-.12-.36.54-.43,3.06-.4,3.68-.4-.08-.22-.15-.43-.23-.65-.88,0-1.72.04-2.57.08-.04.11-.04.21-.04.32-.38,0-.77,0-1.11.04-.15.32-.31.69-.42,1.05q-1.61-.04-3.1-.33c-.04-.11-.08-.21-.08-.32.15-.04.35-.07.54-.11.04-.47-.15-.79.38-.94-.19-.04-.38-.07-.58-.07-.5.98-.77,1.77-2.07,1.59v-.47c.15,0,.34.04.54.07-.12-.22-.23-.43-.31-.65-1.46,2.06-10.26.87-11.72.43,0,.07,0,.18.04.29q-.38.11-2.37-.11c-4.63.54-9.84-.14-14.51-.29-.04-.11-.04-.22-.04-.32q-.31.14-.38.43c-1.04,0-1.57-.36-2.64-.11-.07-.14-.12-.25-.15-.36q-.27-.07-.73.11c-.08-.14-.15-.29-.23-.43-.08.14-.15.32-.19.5-2.26-.18-5.32-.79-7.5-.36-.04-.11-.04-.22-.04-.33-3.1-.15-6.21-.54-9.38-.65-2.11-.43-5.36-.18-7.28-1.08.38-.15.77-.29,1.15-.43-.04-.14-.08-.29-.12-.43.34-.14.69-.29,1.07-.4-1.03-.14-2.07-.25-3.1-.36-.08.18-.15.36-.19.54h-.54c-.15-.18-.27-.36-.38-.54-.5.47-1.23.4-1.92.4q.12.14,1.8.14c.08.18.15.36.23.58.04-.07.08-.14.12-.18.08.07.15.14.23.25.04-.11.08-.22.15-.32.31.11.61.22.96.32,0,.15.04.33.08.51-1.49,0-3.29-.51-4.86-.54v-.29c.15-.07.34-.11.54-.14-1.11-.04-1.91-.04-2.91.25-.08-.11-.12-.22-.15-.32-2.72.4-6.66-.61-9.53-.76-.04-.11-.04-.22-.04-.33-.54.11-1.46.18-1.65-.36-.08.11-.12.22-.15.32h-1.42c-.04-.11-.04-.22-.04-.32-4.37-.14-8.81-1.05-13.25-1.37-.23-.11-.46-.21-.69-.29-.04-.11-.04-.22-.04-.33-.19-.07-.34-.11-.5-.14-.27.14-.54.29-.76.43-.81-.5-1.42-.32-2.34-.32-.04-.18-.04-.36-.04-.5-.88.32-3.22.29-3.83-.29-3.79,0-7.66-.98-11.18-2.17-.23.07-.46.14-.69.25-.65-1.01-1.72-.65-2.3-1.55.34-.22.69-.4,1.03-.58-2.33-.29-2.3-.47-2.98-.54-.04.11-.04.22-.04.32-.73.07-1.42.14-1.8-.61-.38.04-.77.11-1.15.18q.07-.18-.27-.79c-.46-.04-.88-.04-1.3-.04-.65-.79-1.42.15-2.03-.87-.31-.04-.57-.04-.84-.04-.04-.11-.04-.22-.04-.32q-.57-.11-1.15-.47c-.15.04-.3.11-.46.18-.08-.11-.15-.22-.23-.33-.88-.14-2.26-.5-2.57-1.37h-1.53q.19.47.19,1.26c.15,0,.35,0,.54.04.04.18.08.36.11.58-.42-.18-1.22-.36-1.41-.79-.46.04-.92.11-1.34.18-.27,1.27-1.53.47-2.57.83,0,.9.46,1.08-.04,1.84-.31-.04-.61-.07-.88-.07-.23.98.69,1.62.69,2.78-.42.04-.8.11-1.19.18-.27-.61-.5-1.23-.73-1.84q-.42-.14-.65-.58-1.03-.18-1.76-.54c-.15.11-.31.22-.42.36q-.38-.29-.61-.87c-.61.11-.57.07-.96.58.04.14.12.29.19.47-.08,0-.15.04-.23.07-.04-.11-.04-.22-.04-.32-.31-.08-.57-.15-.84-.18.19-.07.38-.11.57-.15-.15-.07-.27-.14-.38-.21,0-.22.04-.43.08-.65-.23.11-.46.22-.69.36.11-.22.27-.43.42-.61-.31-.29-.34-.47-.88-.47.12.07.23.14.35.22-.23.5-.5.83-1.04,1.08-.11-.04-.23-.07-.34-.11-.08-.33-.15-.65-.23-.97-.69,0-.84.32-1.45.14-.08.07-.15.14-.19.25-.19-.04-.34-.07-.5-.07q.23-.18.23-.51c-.15,0-.27,0-.38.04,0,.11.04.22.08.36-1.11-.07-1.42-.29-1.72-.25-.12.32-.19.65-.27.97-.04-.11-.08-.22-.08-.32-.27-.04-.5-.04-.73-.04-.11-.25-.23-.5-.31-.76h-.57c0,.25,0,.51.04.76-.12,0-.23,0-.34.04-.04.22-.08.43-.12.68-.23.07-.46.15-.65.22-.04.14-.04.29-.04.47.12-.04.23-.07.38-.07-.38,1.01-.65,1.19-.57,1.55-.57-.07-1.15-.11-1.68-.14-.04.11-.08.22-.12.33q-.77.32-1.15.25c-.08.11-.15.25-.19.4-.65-.36-1.07-.43-1.76-.11-.12-.18-.23-.36-.31-.54h-.84c-.23-.69-.46-1.01-.99-1.52-.12,0-.23.04-.35.07-.42-.54-1.03-.58-1.76-.69,0,.29.04.58.08.9h-.54c-.08-.22-.15-.43-.23-.61q-2.03-.22-2.61-.04c-.57,1.08-.69,1.05-1.95.94-.08.11-.12.25-.15.4h-.5c-.04-.18-.04-.36-.04-.51-.88.11-1.26.83-1.38,1.59h-.31c-.04-.36-.04-.72-.04-1.05h-.38c-.04.11-.04.21-.04.32-.12,0-.23,0-.35.04.08.87-.23,1.48-.04,2.49-1.15.25-1.53.11-1.72,1.26-.5,0-1,0-1.5.04-.15.4-.3.79-.42,1.23-.5-.07-1-.11-1.49-.14-.04.11-.04.22-.04.32-.57.07-1.15.14-1.68.21.04.22.08.43.15.69-.31,0-.61,0-.92.04-.04.11-.04.22-.04.32-.19,0-.38,0-.54.04.08.61-.15.97-.19,2.24-.46.11-.54.33-.69.72h-.5c-.15.14-.31.29-.46.47.08.07.15.14.27.22-.08.65-.19.58-.34,1.04.15,0,.34.04.54.07-.61.29-.8.97-1.04,1.55-.19-.04-.38-.07-.54-.07.11-.07.23-.14.34-.22-.04-.14-.08-.25-.08-.36-.23.11-.46.25-.65.4v.36c.19.11.38.22.61.36-.15.14-.31.32-.42.5q0-.29-.34-.54c-.27,1.01-.08,1.3-.15,1.73.31,0,.61,0,.92.03v.65c-.08-.11-.12-.22-.15-.33-.15.04-.31.07-.46.11-.23.4-.35.33-.5,1.15.12,0,.23.04.35.07q-.08.25.11.54H.19c.16.11.31.25.46.4-.08.29-.15.61-.19.94.11.04.23.07.38.15-.04.14-.08.29-.08.43.19.04.42.07.65.11,0,.18.04.36.08.58-.31.04-.61.07-.92.11.23.14.46.29.73.43-.38-.04-.77-.07-1.11-.07.31.14.61.33.92.51v.29c-.19,0-.38,0-.54.04-.08.22-.15.47-.19.72.38.07.8.65,1.22.65q-.08.14-1.22.32c.12.04.23.07.34.15,0,.14,0,.33.04.51.12,0,.23,0,.35.03v.29c-.12,0-.23,0-.35.04.04.22.08.43.15.69-.15-.04-.26-.07-.38-.07-.15.29.12.4.12.83.3.07.61.18.96.29-.65.36-.57.5-1.03.61v.36c.15,0,.34,0,.54.04v.29c-.19-.04-.38-.07-.58-.07-.08.07-.11.18-.15.29.42.07.84.14,1.3.22v.29h-.5c-.04-.11-.04-.22-.04-.32H.38v.36c.15.07.31.14.46.25-.15.07-.27.18-.38.29q.27.22.27.51c-.12,0-.23,0-.34.04-.04.25-.08.54-.08.83.12.11.27.22.42.32v.61c-.19,0-.38,0-.54.04v.54c.11,0,.23.04.34.07-.11.04-.23.07-.34.11q.11.43.54.61c-.12.04-.23.07-.34.11-.04.18-.08.36-.12.54.12.07.23.18.38.29-.15.11-.31.22-.46.32.38.07.81.18,1.23.29-.08.25-.15.54-.19.83.12-.04.23-.04.38-.04-.04.36.19.76.27,2.06-.12.04-.19.11-.27.18.04.07.12.18.19.29-.12.04-.19.11-.27.18.15.04.35.07.54.14q-.27,1.23-.15,1.52c.19-.21.42-.4.65-.58.15.04.31.07.46.14.08.25.19.5.31.76q.23-.18,1.15.04c-.34.11-.65.25-.96.4,0,.11.04.22.08.36q-.35.11,1.38.22c0-.18,0-.36.04-.5h.31v.65c-.27.04-.5.07-.73.14q.08.25,1.11.83c-.12.4-.23.83-.34,1.26.12,0,.23.04.34.07-.19.07-.38.14-.54.22.23.11.84.22.5.69-.31-.07-.61-.14-.88-.18.96.33,1.03.97,1.15,1.91.12,0,.23,0,.34.04.08.4.15.79.23,1.23.12,0,.23,0,.35.04.38,1.19.77,2.38,1.19,3.57.15.04.31.07.46.11-.04.15-.08.29-.08.43.12,0,.23.04.35.07.38.72.46,1.19,1.15,1.66.15-.07.31-.15.5-.22v.36q-.34.04-.57.29c.34.07.69.14,1.03.22,0,.14,0,.32.04.51q.34.07.54.32c-.11.07-.23.14-.35.22q.08,1.26.31,1.66c.69,0,.88-.36,1.53-.69q-.12.32-.5.47c.04.36.12.72.19,1.08.35,0,.73,0,1.11.04,0,.11,0,.22.04.32.31,0,.61,0,.92.04.31.47.38.58.99.69,0-.11,0-.22.04-.33.15,0,.31,0,.5.04.08.22.15.43.23.65,1.8.22,2.91,3.28,3.6,3.28.19.51.38,1.05.61,1.59.12,0,.23.04.35.07q.3,1.05.8,1.91c1.65-.43,1.84.87,1.34,1.98.15.04.34.07.54.15q-.34.22-.34.58c.53-.04,1.07-.04,1.61-.04.23.65.46,1.34.69,2.02q.46-.14.84-.65c.27.83.54,1.66.8,2.49h.35c.08-.29.19-.58.31-.83.31.04.61.07.92.11-.04.32-.08.69-.08,1.05,1.11.69.15,1.84,2.1,2.13.04.11.08.25.12.4.88.11.96.11.96,1.08h1.26q-.31-.33-.65-.25.08-.51.42-.9c-.08-.11-.15-.22-.23-.33.34-.03.69-.07,1.07-.11,0,.11,0,.22.04.33.77.07,1.15-.25,1.42-.22.19.43.38.87.57,1.3,0,1.7.34,2.35,1.99,3.1.04.11.08.22.12.32.35,0,.69,0,1.03.04.04.11.08.22.15.36.38.07.77.14,1.19.22-.04.32-.04.69-.04,1.05,1.03.36,1.53,1.23,1.61,2.31h.57c0-.11,0-.22.04-.32h.5q0,.25-.35.43c.08.25.54.51.84,1.16.08-.22.15-.43.23-.65h.54c.04.14.08.29.11.47.34-.11.73-.22,1.11-.33v.43c-.12.04-.23.07-.35.14.54.22,1.11.43,1.69.69.08.32.15.69.23,1.05.42.07.84.14,1.3.22,0,.29,0,.58.04.87.31.14.61.29.92.43q.04.32-.35,1.01c.27.07.54.14.84.22-.11.29-.19.58-.27.87.61.14,1.22.29,1.88.43-.08.43-.11.9-.15,1.37.11,0,.23,0,.34.04.04.21.08.47.15.72.61.04.81-.21,1.38.04.08.25.15.54.23.83.15,0,.34,0,.54.04,0,.11,0,.22.04.33.11,0,.23,0,.34.04,0,.11,0,.22.04.33.5.07,1,.18,1.53.29.73.68.3,1.41,1.34,1.88.04-.15.08-.25.11-.36.96.58.96,2.02,1.8,2.27.15-.14.31-.29.46-.4.11.11.23.25.38.4-.08.14-.15.29-.19.43.08.07.15.14.27.22-.04.22-.08.43-.08.69,1.49.11,3.71.83,5.05,1.52q-.42.58-.42.87c.27.04.54.11.8.18.12.32.23.65.34,1.01.19-.18.38-.36.58-.54h.54c.08.18.15.4.23.61.53,0,.77-.25,1.57-.54,0,.11,0,.22.04.32,1.03.43,1.42.9,2.3,1.55q.65-.25,1.03-.14c.04.18.08.36.15.58.73-.25.88.33,1.49.22q.35,1.3.35,1.99.42.25,1.03.14c0-.18,0-.36.04-.51h.27c-.08.51.19.72.19,1.44.5.18,1.03.36,1.57.58.08.43.15.9.23,1.37,1.3-.22,1.91-1.52,2.79-.11-.11.14-.19.29-.27.47h1.11c.04-.11.08-.22.15-.33.34.47.92.54,1.3,1.19q.23-.22.77-.29.15.32.84.79c.15-.07.34-.14.54-.18.77.54,1.03.72,1.11,1.66.11-.11.23-.18.38-.25.69.54.77.69,1.03,1.55.11-.04.27-.07.42-.11.04-.22.11-.4.19-.58.27,0,.58,0,.88.04.5,2.24,1.68.47,2.83,1.8q.5,0,.8-.22c.11.51.61.43.61,1.05.69-.25.76-.21,1.46-.11-.04.14-.08.29-.12.47.69.14,1.8.11,2.03.79.61.11,1.26.21,1.91.32,0,.15.04.33.08.51.61.04,1.07-.07,1.42.43-.57.65.19.69.38,1.26-.23.07-.42.14-.61.25q.54.36,1.3.4c0-.18.04-.36.08-.51.08.07.16.14.27.25q.27-.21.46-.9.84.18,1.8.65c0,.14.04.33.08.51,1.34-.32,2.56.54,3.26,1.44,2.41,1.34,6.28.51,7.77,2.78.77-.54,1.68-.4,2.11.58.5.14.61,0,1.19,0,.15.22.34.43.54.69.46,0,.8-.32,1.34-.4.84.79,1.84,1.33,1.99,2.49.23-.04.5-.07.76-.11.12-.25.27-.51.42-.76,1.23-.14,2.22.65,3.26.44.19.32.42.68.65,1.04,1.23,0,1.61.83,2.76,0q.54.22.61.47,2.41.07,3.25.36c.04.22.08.47.15.72.31-.11.61-.21.92-.33.61.33,1,.69,1.3,1.3,1.34,0,2.03-1.48,3.03-.04.08-.11.15-.21.27-.29h.88c-.15.11-.31.21-.46.32.88.14,1.15.22,1.65.9.5,0,.77.18,2.68-.04-.04.22-.08.43-.08.69.15.07.34.18.54.29,1.99,0,4.17.04,5.93.98.04-.18.08-.36.12-.54q.35-.11,1,.04c.08.32.15.69.23,1.05,1.22-.07,1.42-.15,2.26.65,1.57-.83,3.71-.32,5.13.69.92,0,1.03-.14,2.14-.21-.04.11-.08.21-.08.32.5.25,1.04.5,1.57.79.73-.07,1.8-.32,2.45.07,1.84-.69,3.1-.62,4.71.47.81-.54,1.11-.14,2.11,0,.84-.65,1-.36,1.99-.36.16-.29.31-.58.5-.87.46,0,.61.22.88.54,1.19,0,2.99-.62,4.17-.29.04.22.08.47.12.72q.77.11,1.34.54c.04-.22.11-.43.19-.62q.69-.36,1.72-.54c.96.9,2.03.9,3.33.36.61.43,1.19.25,1.84.72.08-.11.15-.18.23-.25.27,0,.57,0,.88.04,1.95-1.26,3.29-.36,5.36-.9.11.18.23.36.34.54,1.19.04,2.83-.32,3.79.36.15-.25.31-.47.5-.69,2.3-.18,2.41-.04,3.79-.04.08.22.15.43.23.65.96-.07,1.34-.04,2.22.25.12-.22.23-.43.38-.61.58-.11.8.21.92.72q-1.27.25-2.11.65c-1.57-.47-5.9-.51-6.97.51q-.27-.07-.38-.44c-2.53-.18-5.21-.25-7.62.51-.04-.18-.04-.36-.04-.51-.15,0-.31.04-.42.07-.08.25.15.9.12,1.55,5.78.54,11.79-.83,17.61-.83,0-.62.38-.87.81-1.34-.04-.18-.08-.36-.08-.51.34-.07.69-.14,1.07-.18,0,.15,0,.33.04.51.11,0,.23,0,.34.04v.47h-.5c-.08-.11-.15-.21-.19-.32-.12.22-.19.43-.27.69-.23.07-.46.15-.65.22,7.62.22,15.74-.94,23.17-2.46q.27-.18,1-.11c5.82-2.2,12.6-2.02,18.53-4.22.07.07.15.18.23.29.04-.11.08-.22.15-.33,1.5-.43,3.03-.83,4.56-1.23,1.3-.87,2.68-1.08,4.21-.87.69-.65.92-.58,1.91-.58q2.87-.9,4.9-1.88c-.04-.11-.08-.22-.08-.33q.42-.14,1.11-.04c0-.18,0-.36.04-.5.76-.4,1.11-.97,1.91-1.23.08-.21.15-.4.23-.58.08.32.15.65.27.97.5-.18,1.03-.33,1.57-.47-.35-1.01.5-1.62,1.26-2.16-.04-.25-.04-.47-.04-.69.19,0,.42.04.65.07.04.25.07.51.15.76.08-.22.2-.43.31-.65,1.07-.25,1.8-.65,2.72-1.23.12.04.23.07.34.11v1.08c.96.18,2.18-.65,3.03-1.01q.57,0,3.06-.72c2.72-1.23,5.47-2.42,8.23-3.61,1.11-.9,1.53-.5,2.88-.72-.15-.07-.27-.14-.38-.18.04-.11.07-.22.15-.33.88-.18,1.5-.9,2.3-.54.15-.29.31-.54.46-.79.23-.04.46-.04.73-.04,0-.18,0-.36.04-.51.5.04,1,.07,1.5.14.04-.22.11-.43.19-.62,2.26-1.15,4.52-2.27,6.82-3.39,2.03-.22,4.86-2.96,6.66-4.08q-.08-.18-1.38.25c.16-.36.35-.72.54-1.08.81,0,1.69-.54,1.92-1.26,1.95-.18,3.68-1.12,5.7-1.23-.15.18-.31.36-.46.58.15.04.31.11.5.18.27-.65.46-1.16,1.42-.98,1.3-.69,2.6-2.13,3.94-2.27,0-.18,0-.36.04-.5,1.08-.33,1.92-.98,3.03-1.12.23-.86.96-.54,1.69-.47q-.15.32-3.87,3.1c-.88,2.09-9.04,5.81-11.14,6.39-.19.22-.35.43-.5.65-3.79,2.02-7.54,4.98-11.68,6.28-.15.18-.27.4-.38.61-.69-.11-7.24,2.02-7.77,3.36-1.04-.22-2.22,1.26-3.6,1.26-.04-.14-.04-.29-.04-.43-.12.32-.23.68-.31,1.04-.3,0-.61,0-.88.04-.46.65-.61.65-1.42.83-.15.25-.27.51-.38.76-.19,0-.35,0-.5.04-.04.25-.08.51-.12.79-.46.07-.84-.14-1.42-.07-.34.79-.54.83-1.57,1.15q-.04-.29-.34-.43c-.04.25-.04.51-.04.79-.19,0-.34.04-.5.07-.04-.11-.04-.22-.04-.32-.12-.04-.23-.04-.35-.04-.04-.11-.04-.22-.04-.33h-.38c-.04.11-.08.22-.08.33-.19,0-.35,0-.5.04-.15.18-.31.4-.46.61-.12-.11-.19-.18-.27-.25-.53.79-1.22.79-2.18.97-.88.72-2.07,1.23-3.22,1.37-.04.11-.08.21-.08.32-.92.14-.73.36-1.49.83-2.03,0-3.14.29-5.05.94-1.8-.36-2.53-.11-3.87,1.15-1.04.11-1.34.47-2.18,1.05-.57-.18-.88.36-1.3.65-2.45.65-4.29,1.77-6.89,1.95-2.18,1.01-4.44,1.41-6.89,1.41-.04.11-.07.22-.07.33-.69,0-1.38,0-2.03.04-.57.97-2.6,1.12-3.64,1.15-2.87,1.7-8,2.17-11.29,2.46-.04.11-.08.22-.12.33-.61-.58-4.25.58-4.71.65-5.55,0-10.95,1.63-16.46,1.37-.04.11-.04.22-.04.32-7.01-.25-14.01,1.41-21.02,1.12-.04.11-.04.22-.04.32-.46.15-.88.29-1.3.47,2.45,0,3.03.18,8,.22,8.31-.47,16.58-1.3,24.89-1.81,4.48-.76,5.21-.72,12.52-1.84,1.03.07,1.61,0,2.57-.36.27.18.54.36.84.58,1.8-1.7,5.4-1.3,7.7-1.66-.5-.07-1-.14-1.49-.18.81-.25,1.61-.5,2.45-.72,9.46-1.88,18.72-4.69,27.8-7.76,1.3-.72,5.9-2.53,7.05-2.78q-.16-.36-.46-.36c.99-.61,2.72-1.33,3.21-1.33q-.5.51-1.19.79.54.07,1.88-.36v-.36c-.19-.11-.34-.18-.5-.25q.88-.39,1.46-.36c-.27.11-.53.21-.76.36.42.54,3.98-1.05,4.21-1.12-.42-.11-.85-.18-1.23-.25-.04-.11-.08-.22-.08-.32q1.11-.32,1.8-.25c-.19.07-.39.18-.58.29.12.11.23.22.35.36,1.03-.14,2.49-.33,3.37-.87.19.11.38.22.57.36.08-.11.15-.18.23-.25.96.11,1.49-.51,2.45-.51,1.99-1.3,4.56-2.02,6.82-2.89.3-.4,2.83-1.62,9-5.2.38-.11.77-.18,1.19-.25.04.14.07.33.11.51.84-1.19,2.53-1.23,3.22-2.31,2.37-.87,3.75-2.49,6.43-2.85-.46,1.01-1.8,1.01-1.99,2.42-1.23,1.16-2.6,3.21-4.1,3.9-.57.9-.46,3.25-2.22,1.99.19-.29.38-.58.61-.83-.11-.07-.23-.11-.31-.14-.04.11-.04.22-.04.32-.61.25-1.15.29-1.34.9h-.31c-.07-.25-.15-.47-.23-.69-2.41.18-4.56.87-6.66,1.59,0-.14.04-.25.08-.36-1.15-.22-.54,1.33-.54,1.62-.11,0-.23,0-.34.04-.04.32-.04.69-.04,1.04-1.49.29-2.53.97-3.98,1.48-.04.11-.04.22-.04.33-.65.14-1.65.25-1.72,1.08h-.5c-.04-.11-.04-.22-.04-.33-.34.04-.65.11-.96.18-.11.58-.46.65-.46,1.23h-1.04c.15-.11.35-.18.54-.25-.23,0-.46,0-.65.04-.65.94-1.88,1.05-2.68,1.8.12.87.58,1.48.58,2.38q-.69.07-2.64.83c-.54.65-.73,1.01-1.57,1.12-.19.29-.38.62-.57.94-.27-.07-.54-.11-.77-.15.19-.14.42-.25.65-.36-.08-.11-.15-.22-.19-.29-1.46.43-5.67,1.08-6.01,2.42q-.42.14-.8-.07c.84-.58.99-.83,1.07-1.88q-.38-.11-4.6.25c.96-1.37,2.1-1.52,3.75-2.1-3.45.11-5.97.62-8.5,2.89v.4c-1.22.54-3.18,1.26-3.94,2.31-.58.04-1.15.07-1.72.14-.08.11-.15.25-.23.4q-.46.25-7.96,2.09c-1.07.15-2.99-.07-3.48.98-2.68.25-4.86-.47-5.55,2.16-1.03.11-1.57.54-2.56.29.23-.04.46-.07.73-.07v-.36h-1.34c-.12.29-.23.58-.35.9h-.5c-.08-.15-.15-.25-.23-.36-.08.11-.12.21-.15.32-1.08.25-2.88.69-3.95.58q-.19.32-.61.5-.04-.36-.46-.79c.07-.11.15-.21.23-.29q-.54-.07-1.3.18c-.11-.11-.23-.22-.31-.32-.23.14-.46.29-.69.47v.36c.15.11.34.22.54.36-.92.32-1.03.25-1.96-.04.12-.22.23-.43.34-.62-.31.04-.57.11-.84.18.04.22.12.43.2.68-4.33.62-4.71.83-9.23,1.59-1.34.04-3.25-.29-4.17.58-4.6.11-6.89.47-13.4.83-1.46,1.12-9.42-.04-9.57,1.52-.19-.04-.35-.07-.5-.07-.04-.22-.04-.43-.04-.61-2.87.36-5.74-.18-8.54.47-2.18-.07-5.13-.65-7.12.4-.04-.18-.04-.36-.04-.5-4.44.43-5.02.25-7.74.47v.51c.96.72,2.03.29,3.22.18,4.14.4,10.07-1.08,13.48.51-.04.07-.08.14-.08.22-1.3.18-2.26-.07-3.45.4-1.04-.65-2.68-.18-3.87.04-.04-.11-.04-.22-.04-.33-.99.04-1.99.07-2.99.11-1.15-.43-1.03-.18-2.18-.04-.08-.14-.15-.29-.19-.43q-2.15.25-3.87.25c-.5.36-.84.36-1.49.36.12-.33.23-.62.35-.9-.12-.07-.19-.14-.27-.22-.42.33-1.03,0-1.26.47-.8.04-1.53.25-2.18-.22.19-.04.42-.07.65-.07.04.11.08.22.12.32.61-1.33,2.72-.4,3.64-1.01-.08-.18-.12-.36-.15-.51-.38-.04-.73-.04-1.07-.04-.92-.94-2.99-.69-4.29-.69-.57.18-1.11.4-1.65.62-.04.11-.04.22-.04.32-.27-.04-.5-.07-.73-.07.08-.22.19-.43.31-.65-1.99-.54-3.41-.72-5.44-.72-.04-.11-.04-.22-.04-.33-3.56.29-8.92-.94-12.21-1.3-.04-.11-.04-.22-.04-.32-3.64-.47-4.59-.83-5.4-.83-.61.4-.92.54-1.65.43-.07-.22-.15-.4-.19-.58-1-.22-1.69-.4-2.68-.15-.04-.18-.04-.36-.04-.5-.84-.04-1.65-.04-2.45-.04-.04-.18-.04-.36-.04-.5q-2.91-.29-4.37-.22c.73,1.48,3.52,1.52,5.05,2.09-.19.14-.38.29-.54.43q-.34-.25-1.34-.25c-.04-.11-.04-.21-.04-.29-1.22-.33-2.11-.69-3.18.11q.73.22,2.64.36c.42.54,1.15.4,1.69.9,1.3.07,2.87,0,3.83.9,1.84-.29,2.8.47,4.48.97,1.34-.14,3.33.04,4.37.87.84-.25,2.83.07,3.6.51,2.91.18,6.24,1.3,9.08.9,3.48.76,7.31,1.01,10.87,1.3,2.26-.25,5.29-.58,7.32.25,3.41-.51,6.66-.04,9.92-.47,5.55.54,11.11,0,16.58,0,2.26-1.04,6.09.65,8.08-.9,2.14.9,4.25-1.59,6.2-.51q.42-.21,1.8-.21c1.91-1.12,5.67-.79,7.81-.72,3.03-1.05,5.97-.69,9-1.8,5.55,0,11.33-1.84,16.62-3.28q.38.07,2.56-.33c3.91-2.27,8.77-1.95,12.72-3.97,1.91,0,4.06.76,5.59-.68q.42,0,.73.32c-.19.11-.38.25-.57.4-.12.87-.04,1.3-.77,1.8-.65,2.85,5.67,1.34,6.05-.79.23-.11.49-.21.76-.33q-.04-.18-.69-.25c.23-.61.38-.9,1.03-1.19-1.07-.79-2.87.04-4.17.07.12-.36.23-.69.38-1.01.73-.04,6.01-.29,5.52-1.84-.27-.04-.54-.07-.77-.11-.07-.62-.04-.65.35-1.12.84.18,2.83-1.3,2.95-2.17,1.23-.58,2.14-.43,3.53-.43-.23.11-.46.25-.65.39.92-.21,1.65-.5,2.57-.29-.27.69-.92.9-1.61,1.01,1.19.07,1.8-.04,2.87-.47.08-.4-.04-.72-.54-.72v-.33c1.3-.87,1.72-.83,3.37-.47,0-.18,0-.36.04-.51.88.07,1.22.11,2.07.51.04-.18.08-.36.11-.54.38-.04.8-.07,1.23-.11.11-.22.27-.4.42-.58.5,0,1.04,0,1.57.04.27-.58.57-1.15.88-1.7-.38.04-.77.11-1.15.18-.31.47-.42.72-1.07.79q.08-.36-.23-.94c-.84.11-1.68.22-2.53.32-.04.11-.08.22-.12.33-1.46.32-3.56.65-4.9,1.26-.04-.11-.08-.22-.12-.29,1.42-.47,2.83-.94,4.25-1.41.54-.51.72-.58,1.53-.72.04-.14.08-.29.15-.4,1.88-.29,3.79-.58,5.71-.83.62.58-.07,1.12-.69,1.3.08.11.15.21.27.32.46-.07.92-.14,1.38-.18.19.22.42.43.65.69-.31.07-.57.18-.84.29-.04.11-.08.21-.12.32-1.11.29-1.26.18-1.42,1.37-.8.36-1.61.72-2.41,1.08q-.2-.18-.08-.61c-.23.04-.46.11-.69.18q.27.21.27.69c-2.76,1.23-5.48,2.45-8.2,3.72h.58c3.1-1.3,6.2-2.6,9.3-3.86,1.92-1.37,3.87-1.73,6.2-1.91.96-1.34,3.29-.9,4.71-1.95,1.3-.4,3.22-.76,4.17-1.66.46-1.8,2.76-2.74,3.22-4.55.88-.18,1.34-.47,2.07-1.01.08.04.15.11.27.18-.04.22-.08.43-.08.69-.57.21-1.15.47-1.72.72h.77c2.68-1.44,4.71-3.28,7.35-4.69q.77-.9,1.26-1.23c.04.11.08.22.12.33-.31.36-.58.72-.84,1.08q1.22-.54,2.37-1.41c1.88-.58,2.87-1.41,4.56-2.2,0-1.44,2.49-1.99,3.75-1.99-.16-1.55.92-2.02,2.49-2.53q.96.22,1.91.11c0-.25.04-.51.08-.72,1.34-.36,2.07-1.15,2.45-2.49.92-.54,1.53-.69,1.8-1.66h2.76c.08-.5.15-.97.27-1.44.62,0,1.23.04,1.84.07.11-.22.27-.4.42-.58h1.19c.15-.18.31-.36.46-.51-.5-.79-.62-.72-.69-1.12.5-.04.99-.07,1.49-.11q.07.21-.46.72c.04.29,2.91-1.91,4.48-2.09.15-.79.92-1.12,1.61-1.59q.19.25,0,.87.19.03.92-1.41c.42-.07.84-.15,1.3-.22,0-.11,0-.22.04-.32,1.11-.83,2.18-1.98,3.6-2.2.12-.36.27-.72.42-1.05.15-.04.34-.04.53-.04.08-.25.16-.47.27-.68.5.04,1,.07,1.5.14,0-.11,0-.22.04-.32.15-.04.34-.04.54-.04.88-1.12,4.82-3.21,4.82-3.93.15-.04.35-.04.54-.04,0-.11,0-.22.04-.33.34-.07.73-.14,1.11-.22,0-.18.04-.36.08-.54.54-.25,2.06-.65,2.06-1.23.5-.14,2.11-1.15,2.11-1.62h.84c0,.11.04.22.08.32.88.22,1.8.22,2.87.54.46-1.52,3.68-2.53,3.68-3.39.15,0,.34.04.54.07.04-.11.12-.22.19-.29-.12-.07-.23-.11-.31-.14q.65-.11,1.65.14c0-.11,0-.22.04-.32.12-.04.23-.04.35-.04-.2-.54-.23-.87-.84-1.01,0-1.44,1.61-1.12,2.26-2.06,1.61-.94,3.14-1.08,2.91-3.28-.23-.14-.46-.29-.65-.4-.04-.18-.04-.33-.04-.47-1.72-.58-2.68-1.23-3.91-2.53.04-.29.08-.58.12-.87.12-.04.23-.04.35-.04.57-1.41.5-1.62,2.03-2.2q-.39-.51-.54-1.48c.11-.04.27-.07.42-.11-.08-.33-.15-.65-.23-.98.42-.18.84-.32,1.3-.47-.12-.18-.19-.32-.27-.47.04-.15.12-.29.19-.4.61-.11,1.23-.22,1.88-.29.23-.36.46-.69.69-1.01-.62-2.06,2.11-4.33,3.87-5.02.08-.25.15-.5.27-.72.11-.04.23-.04.35-.04,0-.18,0-.36.04-.51.34-.07.73-.14,1.11-.22.04-.14.08-.29.12-.4.27-.04.58-.07.88-.11.23-.47.42-.54,1.04-.25.11-.18.23-.36.38-.54.27-.04.58-.07.88-.11.04-.25.12-.51.19-.72.15-.07.31-.14.46-.22-.04-.25-.08-.47-.08-.68.62-.07,1.22-.15,1.87-.22q-.15-.47.04-1.05c.23-.04.46-.04.73-.04,0-.11,0-.22.04-.33.23-.04.46-.04.72-.04.46-.9,1.49-1.23,2.49-1.45.12-.97,1.18-1.48,1.18-1.95.16-.04.35-.04.54-.04,0-.25,0-.47.04-.69.12-.04.23-.04.35-.04,0-.21.04-.43.08-.61.27-.11.54-.18.85-.25.38-1.01.84-1.19,1.95-1.48,0-.25,0-.47.04-.68.12-.04.23-.04.34-.04,0-.18,0-.36.04-.5.23-.04.46-.04.73-.04.11-.43.27-.83.42-1.23.3-.07.61-.14.92-.22,0-.18,0-.36.04-.51.23-.07.46-.14.73-.22.3-.58.42-1.34,1.15-1.48,0-.18,0-.36.04-.5.23-.14.46-.29.73-.4-.08-.18-.12-.32-.15-.47.76-1.12,1.19-1.62,1.3-2.96-.31-.04-.61-.04-.92-.04-.54-.79-1.04-1.66-1.92-2.17-.04-.18-.04-.36-.04-.5-2.22-.68-1.34-2.2-1.3-4.22-.19-.07-.38-.11-.57-.14-.19-.76.12-.87.08-1.41-1.03-.11-1.45-.68-2.57-.76.08-.61.19-1.23.31-1.84.19-.07.42-.15.65-.22,0-.87.23-1.3,1.22-1.3.08.07.16.14.23.25q.38-.36.99-.47-.15-.61-.53-1.15c-1.57-.07-2.61.94-4.06-.04-.12.04-.2.11-.27.18q-.23-.29-.26-1.12c.11-.07.23-.11.34-.14-.53-.15-.42-.43-1.03-.43-.12-.14-.19-.25-.27-.36-.38.62-.92.69-1.72.87-.27-1.08-.12-1.08.91-1.7-.88,0-.8.07-1.38.61-.85-1.73,4.32-4.01,5.9-4.26-.46.76-1.3,1.77-1.3,2.6.84-.61,2.53-1.44,2.76-2.42,2.56.32,5.97-1.48,6.66-3.83-.11-.03-.23-.03-.34-.03-.04-.11-.04-.22-.04-.33Zm-35.23-2.53h.39v.36h-.39v-.36Zm-2.64.72c.31-.07.61-.14.92-.18v.72c-.46.04-.92.11-1.34.18.12-.25.27-.5.42-.72ZM1.34,28.52h-.38v-.18h.38v.18Zm.19,5.05h-.19v-.36h.19v.36Zm-.77,3.79c.08-.11.15-.22.23-.32.04.11.08.22.15.32h-.38Zm.77-.72h-.38v-.36h.38v.36Zm-.19-11.55c-.19-.22-.38-.43-.57-.62.23-.04.5-.07.77-.11-.08.22-.15.47-.19.72Zm0-1.99q.15-.29.31-.18c-.12.04-.23.11-.31.18Zm.38,7.58h-.19v-.36h.19v.36Zm.38-9.21c-.12-.14-.23-.29-.31-.4.11-.04.23-.04.38-.04-.04.14-.08.29-.08.43Zm.58,22.56h-.38v-.36h.38v.36Zm-.19-24.54q.15-.29.31-.18c-.11.04-.23.11-.31.18Zm.88-2.96c.35.11.69.22,1.04.32-.38.22-.77.43-1.15.65.04-.33.08-.65.12-.97Zm-.31,17.22h.19v.36h-.19v-.36Zm0,8.84v-.36c.08.04.19.07.31.14-.12.07-.23.14-.31.22Zm.58,2.53h-.19v-.36h.19v.36Zm.38-27.25h-.38v-.18h.38v.18Zm.19,26.89q.38-.29.46-.11c-.15.04-.31.07-.46.11Zm.65-31.26q.46-.07.57.15c-.15,0-.31.04-.46.07-.04-.07-.07-.14-.11-.22Zm.11,30.9v-.18h.38v.18h-.38Zm.96,1.26h-.77q0-.18.77-.36v.36Zm1.3-33.32c.08.07.15.18.23.29h-.38c.04-.11.08-.22.15-.29Zm-.54,33.68h.38v.36h-.38v-.36Zm.38.72q-.12.62-.38.72c-.08-.25-.15-.51-.19-.72h.58Zm-.76,2.56c.15.04.3.07.46.11q0,.29-.27.43c-.07-.18-.15-.36-.19-.54Zm.57,1.45h-.38c.04-.18.08-.33.16-.47.07.14.15.29.23.47Zm-.15,1.88q.27.11.27.29c-.12-.11-.19-.22-.27-.29Zm.42-.4c-.23.04-.46.07-.65.14.04-.14.08-.29.12-.43.19-.04.42-.07.65-.11-.04.11-.08.25-.12.4Zm.69-25.34h-.38v-.36h.38v.36Zm.96-10.47c-.08.11-.15.22-.19.36-.08-.11-.11-.18-.15-.25.12-.04.23-.07.34-.11Zm-.38,39.38v-.36c.08.03.19.07.31.15-.11.07-.23.14-.31.22Zm.19.54c.04-.11.08-.22.15-.29.08.07.15.18.23.29h-.38Zm.57-14.11c.04-.18.08-.33.15-.47.04.11.08.22.12.36-.12.04-.19.07-.27.11Zm1.15,16.1h-.38v-.36h.38v.36Zm.19-2.89h-.38v-.18h.38v.18Zm.57,2.53h-.19v-.36h.19v.36Zm1.15-3.07h.38v.18h-.38v-.18Zm.57,5.78h-.38v-.18h.38v.18Zm0,2.17q.12-.43.31-.4c-.11.11-.23.25-.31.4Zm.96-2.34h-.38v-.18h.38v.18Zm.38,2.06c.15,0,.31,0,.5.04,0,.14.04.29.08.43-.19-.18-.38-.32-.58-.47Zm2.11.65h-.19v-.36h.19v.36ZM31.59,5.41h-.38v-.18h.38v.18Zm.19-.54h-.38v-.18h.38v.18Zm-.19-.54v-.36q.77,0,.77.18c-.27.04-.54.11-.77.18Zm1.34,0q-.12-.22.08-.25c-.04.07-.08.14-.08.25Zm.58,1.08q0-.18.42-.32c.04.11.08.22.15.32h-.57Zm1.34-.9c-.08-.14-.12-.29-.15-.43.15,0,.31,0,.46.04-.12.11-.23.25-.31.4Zm3.25.54v-.36c-.46-.11-.69-.47-1.03-.47-.04-.25-.08-.47-.12-.69.15-.07.31-.14.46-.22q.04.65.31,1.08c.19-.04.42-.04.65-.04q0,.43-.27.68Zm.77.72h-.38v-.54h.38v.54Zm1.15-.72h.38v.18h-.38v-.18Zm.19.54h.38v.18h-.38v-.18Zm.31,79.99c-.08-.07-.15-.14-.23-.21.08-.07.19-.11.31-.15-.04.11-.08.22-.08.36Zm.27-78.36h-.38v-.18h.38v.18Zm0-.9q.11-.43.31-.4c-.11.11-.23.25-.31.4Zm.19-1.63q.38-.47.5-.36c-.19.11-.34.21-.5.36Zm.8.47c.11,0,.27,0,.42.04-.12.07-.19.14-.27.22-.08-.11-.12-.18-.15-.25Zm.54,1.52h-.38v-.72h.38v.72Zm1.91-.36h-.38v-.18h.38v.18Zm4.21-1.27q.08-.51.27-.43c.04.14.08.29.11.43h-.38Zm3.45.72c-.12-.32-.19-.65-.27-.98.15-.03.3-.07.46-.11.07.29.19.58.31.9-.19.04-.34.11-.5.18Zm4.02,93.71h-.38v-.18h.38v.18Zm.77-94.79h-.39v-.18h.39v.18Zm4.21.54c-.08-.11-.12-.18-.15-.25.23.04.46.07.69.11-.19.04-.38.07-.54.14Zm248.22,4.87h.38v.36h-.38v-.36Zm-41.47,2.74c.07.07.15.14.23.22-.12.07-.23.18-.31.29q-.15-.29.08-.5Zm-49.13,5.02h.38v.18h-.38v-.18Zm-8.23.36h.38v.18h-.38v-.18Zm-.96-.72h.38q-.11.47-.38.72v-.72Zm-1.57.61c.5.07.69.18,1.19-.07-.04.15-.08.29-.12.43-.42.04-.84.07-1.22.11.04-.18.07-.32.15-.47Zm-3.41.11c.15.04.3.07.46.14-.16.11-.31.25-.46.4v-.54Zm-1.99.11c.23.04.5.07.77.11-.31.04-.61.07-.88.14.04-.11.08-.18.11-.25Zm-4.13-.65h1.15v-.36q.5.11.92-.11c.08.25.15.54.23.83q.96.07,1.42.33c-.34.07-.69.14-1.03.22-.38-.14-.77-.25-1.15-.36-.04-.25-.08-.5-.11-.72-.04.18-.08.36-.08.54h-1.34v-.36Zm-1.03.18c.08.18.15.36.27.54h-.38c.04-.18.08-.36.12-.54Zm-74.02-4.51h.19v.36h-.19v-.36Zm-56.83-7.29v.69c-.12.04-.19.07-.27.11-.08-.33-.15-.61-.19-.9.15.04.31.07.46.11Zm-2.37-.47h.38v.54h-.38v-.54Zm6.89,103.99c-.08-.18-.15-.36-.19-.54.23.04.46.07.69.14,0,.07,0,.14.04.25-.19.04-.38.07-.54.14Zm7.12,4.87c-.08-.11-.12-.18-.16-.25.12-.04.23-.07.35-.11-.08.11-.15.22-.19.36Zm11.54-34.33c-.09.14-.24.22-.4.22h-8.23c-.19,0-.36-.11-.44-.29l-3.53-8.2,6.21-5.89,6.41,13.7c.07.15.06.32-.03.46Zm-14.18-11.96l-2.95,2.79-1.37,6.49-.53,2.52c-.05.22-.24.38-.47.38h-7.18c-.14,0-.28-.07-.37-.18-.09-.11-.13-.26-.1-.4l6.61-31.09c.05-.22.24-.38.47-.38h7.18c.14,0,.28.07.37.18.09.11.13.26.1.4l-2.5,11.79,11.99-12.23c.09-.09.21-.14.34-.14h8.1c.19,0,.37.12.44.29.07.18.03.38-.1.52l-.99.98-19.04,18.06Zm38.64,60.91h-.38v-.18h.38v.18Zm3.45,1.26h-.19v-.36h.19v.36Zm2.89-61.7c-1.02,2.26-2.43,4.3-4.17,6.07-1.74,1.77-3.76,3.21-6.03,4.28-2.27,1.08-4.7,1.62-7.21,1.62-1.96,0-3.73-.38-5.25-1.12-1.51-.74-2.8-1.76-3.84-3.02-1.03-1.25-1.81-2.7-2.34-4.31-.52-1.6-.79-3.29-.79-5.03,0-1.62.24-3.23.72-4.78.47-1.54,1.14-3.04,2-4.44.85-1.4,1.86-2.71,3.02-3.89,1.16-1.19,2.47-2.23,3.88-3.1,1.42-.86,2.93-1.55,4.51-2.04,1.59-.49,3.24-.74,4.91-.74,1.93,0,3.68.39,5.2,1.15,1.51.76,2.8,1.77,3.81,3.01,1.01,1.24,1.79,2.69,2.32,4.31.52,1.62.79,3.3.79,5.01,0,2.39-.52,4.76-1.55,7.03Zm27.86-4.65c-.62.98-1.36,1.88-2.22,2.7-.76.72-1.59,1.34-2.48,1.85l3.85,11.18c.05.15.03.31-.06.43-.09.13-.24.2-.39.2h-8.1c-.2,0-.39-.13-.45-.32l-3.3-9.7h-3.34l-2.02,9.65c-.04.22-.24.38-.47.38h-7.18c-.14,0-.28-.07-.37-.18-.09-.11-.13-.26-.1-.4l6.61-31.09c.05-.22.24-.38.47-.38h13.35c1.3,0,2.47.27,3.48.8,1,.53,1.86,1.23,2.56,2.09.69.86,1.23,1.85,1.59,2.95.36,1.09.55,2.23.55,3.39s-.18,2.25-.53,3.34c-.35,1.08-.83,2.13-1.45,3.11Zm9.8,15.98c-.05.22-.24.38-.47.38h-7.18c-.14,0-.28-.07-.37-.18-.09-.11-.13-.26-.1-.4l6.61-31.09c.05-.22.24-.38.47-.38h7.18c.14,0,.28.07.37.18.09.11.12.26.1.4l-6.61,31.09Zm31.92,0c-.05.22-.24.38-.47.38h-5.69c-.18,0-.34-.1-.42-.26l-8.71-16.6-3.49,16.48c-.05.22-.24.38-.47.38h-7.18c-.14,0-.28-.07-.37-.18-.09-.11-.13-.26-.1-.4l6.61-31.09c.05-.22.24-.38.46-.38h5.61c.18,0,.34.1.42.26l8.71,17.06,3.57-16.94c.05-.22.24-.38.47-.38h7.18c.14,0,.28.07.37.18.09.11.13.26.1.4l-6.61,31.09Zm10.94.12c-.08.16-.25.26-.42.26h-7.78c-.17,0-.33-.09-.41-.23-.09-.15-.09-.33,0-.47l17.25-31.09c.08-.15.24-.25.42-.25h6.52c.24,0,.44.18.47.42l4.03,31.09c.02.14-.02.27-.11.38-.09.1-.22.16-.36.16h-7.36c-.25,0-.45-.19-.48-.43l-.04-.44-1.39-19.22-10.34,19.83Zm12.21,63.39c-.38-.36-1.07-.14-1.57-.11-.04.15-.04.33-.04.51h-.38v-.54q-1.84-.04-1.84-.22,1.91-.98,2.68-1.12c.04.11.08.25.15.4,1,0,1.5.03,2.42.43-.5.21-.96.43-1.42.65Zm3.37-.32q-.31-.58-.19-1.08h.76c.04.07.08.14.12.25.92-.72,3.6-1.05,4.9-1.15,0,.65.38.5.58,1.08-2.07.32-4.17.36-6.16.9Zm11.75-1.7q-.61.32-.96.25c.07-.15.15-.29.23-.43-.23-.04-.42-.07-.61-.07-.04.14-.04.32-.04.51-.99.07-2.22.47-3.06.9v-.54c-.23-.07-.46-.11-.65-.14,0-.25,0-.47.04-.69.69-.25,1.42-.5,2.15-.76.92.21,1.3.11,2.18-.18.23.22.5.43.76.65-.04.15-.04.33-.04.51Zm.54-.65v-.36c.08.04.2.07.31.14-.11.07-.23.14-.31.22Zm1.96-.47c-.23.04-.42.07-.61.11.12-.29.23-.58.34-.83.12-.04.27-.07.42-.07-.07.25-.11.51-.15.79Zm6.09-.61c-.15-.07-.27-.14-.38-.18.04-.29.08-.58.16-.83.49.22.88.14,1.11.36-.31.21-.62.43-.88.65Zm9.93-84.16l-5.22,24.4c-.05.22-.24.38-.47.38h-7.18c-.14,0-.28-.07-.37-.18-.09-.11-.12-.26-.09-.4l5.17-24.21h-8.3c-.14,0-.28-.06-.37-.18-.09-.11-.13-.26-.1-.4l1.31-6.31c.05-.22.24-.38.47-.38h24.91c.14,0,.28.06.37.18.09.11.13.26.1.4l-1.31,6.3c-.05.22-.24.38-.47.38h-8.46Zm23.2,75.68h-.19v-.36h.19v.36Zm8.14-64.56c-.76.72-1.59,1.34-2.48,1.85l3.85,11.18c.05.15.03.31-.06.43-.09.13-.23.2-.39.2h-8.1c-.2,0-.39-.13-.45-.32l-3.3-9.7h-3.34l-2.02,9.65c-.05.22-.24.38-.47.38h-7.18c-.14,0-.28-.07-.37-.18-.09-.11-.12-.26-.09-.4l6.61-31.09c.05-.22.24-.38.47-.38h13.35c1.3,0,2.47.27,3.48.8,1,.53,1.86,1.23,2.56,2.09.69.86,1.22,1.85,1.59,2.95.36,1.09.55,2.23.55,3.39s-.18,2.25-.53,3.34c-.35,1.08-.83,2.13-1.45,3.11-.61.98-1.36,1.88-2.22,2.7Zm11.05,57.01c-.27.04-.53.07-.8.14v-.36c.3-.07.61-.14.96-.18-.07.11-.11.25-.15.4Zm2.46-1.3h-.58q.12-.25.58-.36v.36Zm18.77-42.22c-.09.1-.22.16-.36.16h-7.36c-.25,0-.45-.19-.47-.43l-.04-.44-1.39-19.22-10.34,19.83c-.08.16-.24.26-.42.26h-7.78c-.17,0-.32-.09-.41-.23-.09-.15-.09-.33,0-.47l17.25-31.09c.08-.15.24-.25.42-.25h6.52c.24,0,.44.18.47.42l4.03,31.09c.02.14-.02.27-.12.38Zm-26.24,50.88c.04-.11.08-.22.16-.29.07.07.15.18.23.29h-.38Zm1.15-.36h-.38v-.36h.38v.36Zm-140.96,22.02h-.38v-.36h.38v.36Zm13.59,2.35c.04-.14.08-.29.12-.43q-.31-.22-.69-.11v-.54c1.11.07,2.22.18,3.37.29.08.14.15.29.27.43-1.19-.04-1.92.22-3.06.36Zm3.83-.36v-.36c.61.07,1.26.14,1.92.25-.65.04-1.3.07-1.92.11Zm2.87.18h-.77v-.36h.77v.36Zm1.34.36c-.19-.18-.38-.32-.57-.47.54,0,1.07.04,1.65.07q-.38.29-1.07.4Zm39.63.72c.04-.11.08-.22.15-.29.08.07.15.18.23.29h-.38Zm.96-.36h-.38v-.18h.38v.18Zm13.4-1.62q.12-.25.76-.36c-.27.11-.54.21-.76.36Zm3.29-.18c-.65.04-1.3.11-1.95.18-.04-.15-.08-.29-.08-.44.65-.04,1.34-.07,2.03-.11v.36Zm40.02-8.12c.04-.11.07-.18.11-.25.27.04.54.07.8.11-.31.04-.61.07-.92.14Zm1.15.18c.04-.25.12-.5.19-.72h.57q-.38.61-.76.72Zm14.36-1.62c.62-1.19,1.57-1.33,2.88-1.44-.08.36-2.34,1.3-2.88,1.44Zm12.45-6.68c.04-.11.08-.22.15-.29.07.07.15.18.23.29h-.38Zm3.71-3.86c-.04.11-.04.22-.04.32-.27.04-.54.11-.77.18.08.07.15.14.27.25q-.54.51-1.46.94c.5-1.05,1-1.48,2.03-2.02,0-.11.04-.22.07-.32h.38c.04.11.08.21.11.36-.23.07-.42.18-.61.29ZM369.42,4.88c.19.03.42.07.65.11q0,.32-.27.43c-.15-.07-.27-.14-.38-.18v-.36Zm-43.59,75.32h-11.12c-.1,0-.19-.04-.25-.12-.06-.08-.08-.17-.06-.27l1.92-9.03-3.98-2.13c-.12-.07-.18-.22-.15-.36.04-.14.16-.23.31-.23h12.56c.1,0,.19.04.25.12.06.08.08.17.06.27l-.78,3.7,11.54-7.42-8.11-8.86-.97,4.59c-.03.15-.16.25-.31.25h-7.89c-.1,0-.19-.04-.25-.12-.06-.07-.08-.17-.06-.27l2.46-11.59c.03-.15.16-.25.31-.25h11.12c2.05,0,3.86.32,5.4.97,1.54.64,2.83,1.53,3.83,2.64,1,1.11,1.76,2.43,2.26,3.95.49,1.5.74,3.13.74,4.85,0,2.77-.48,5.37-1.42,7.71-.95,2.35-2.28,4.41-3.96,6.12-1.68,1.71-3.7,3.07-5.99,4.03-2.29.96-4.8,1.45-7.46,1.45Zm-.25,31.2c.08.04.19.07.3.14-.12.07-.23.14-.3.22v-.36Zm-1.72-.29c-.19.07-.38.18-.57.29q.12-.25.57-.29Zm-2.29,6.43h.38v.18h-.38v-.18Zm-7.47,8.48c-.08-.18-.15-.36-.19-.54.38,0,.76.04,1.15.07-.35.14-.65.29-.96.47Zm2.49-.36c.11-.04.23-.04.35-.04.19-1.3,1.19-1.52,2.53-1.52q-1.34,1.12-2.07,1.41c-.38,1.52-.61,2.49-2.33,2.67.27-.83,1.14-1.62,1.53-2.53Zm.19,3.79h-.38v-.36h.38v.36Zm48.17-34.29c-.31.61-.5,1.01-1.07,1.26-.04-.11-.07-.22-.11-.29-1.76.69-5.05,1.73-4.79,3.93-3.29,2.71-7.08,4.84-10.49,7.58,0,.14.04.32.07.51-3.33,1.05-5.25,3.14-8.15,4.8q.19.22,0,1.01c-.19.07-.39.15-.58.25.08.11.15.22.23.32,1.26-.83,2.37-1.12,3.87-1.59,1.15-2.02,2.76-2.53,4.44-3.86q.65.25,1.72.25c.42.69-.96,2.02-1.34,2.49-1.76.36-4.37,1.88-4.79,3.54-.46.11-.88.26-1.3.4-.08.29-1.92,1.3-2.38,1.7q-1.23-.25-1.57-.14c.04.11.11.25.19.4-.54.25-.61.21-1.19.04q-.73,1.05-.84,1.59c-.84.14-1.22.29-1.84.79.15.04.31.11.5.18-2.22.14-5.13.97-6.16,2.92-.73,0-1.3.33-2.64.36-.31.72-1.04,1.44-1.15,2.06h-.38q.12-.62.34-.83-7.73,2.53-8.58,2.64c.27-.4.57-.79.88-1.16,3.3-1.26,5.33-3.43,8.7-4.37.99-2.09,1.03-1.34,3.02-1.55.27-.79,1.54-1.08,2.3-1.44.12-.94.58-1.05,1.3-1.66.77.07,2.45.07,2.18-1.01,1.07,0,1.8-.87,2.57-1.52-.54.07-1.07.14-1.61.25.42-1.7,3.37-2.99,4.94-3.68,0-.36,0-.69.04-1.01.35.04.73.07,1.11.11v-.62c-.15-.07-.3-.11-.42-.14-.73.36-1.15.76-2.03.65v-.36c.23-.11.46-.18.73-.25h-.73q-.73.76-.54.79c.04.11.08.22.15.36-.65-.14-.69,0-.69.54q-1.5,1.08-1.61,1.44c-.15-.07-.31-.11-.46-.15-.04-.18-.08-.32-.12-.47q-1.03.94-3.14,2.2,0-.4.23-.72c-.23.07-.42.18-.62.29-.04.29-.04.58-.04.87-1.19.65-1.65.97-2.87.14v-1.52c-.07-.04-.15-.07-.23-.07q-.15.54-.42.76c-3.18.51-4.4,2.1-7.28,3v-1.26c.19-.14.42-.29.65-.4,0-1.19,0-1.41.65-2.42,1,0,3.75-1.7,4.52-2.02.04-.33.11-.62.19-.9-.38.14-.76.29-1.11.47-.04.11-.08.25-.12.4-.19-.07-.34-.14-.5-.18,1.49-1.55,3.83-2.28,5.21-3.86,1.49-.69,3.06-2.82,4.94-2.53,0,.65-.42.72-.19,1.44.34-.58.69-1.12,1.03-1.66-.11-.07-.23-.14-.34-.18.8-.36,1.26-1.01,2.18-.87v.47c-1.49.83-2.68,3.07-3.64,4.51-1.99,1.52-2.76,1.88-3.49,2.56.88,0,1.88-.22,2.07-1.15,1.42-.11,2.68-1.44,4.1-.79,1.11-.72,2.41-.94,3.64-1.7.12.11.27.25.42.4.46-.11.92-.18,1.42-.25-.38.39-.73.79-1.07,1.19.08.11.15.22.23.33.8-.61,2.83-1.23,3.06-1.95.92-.4,1.3-.83,1.99-1.01-.04.22-.08.47-.08.72,1.31-1.48,1.42-2.09,3.68-3.14.12-.21.23-.39.38-.58,1.57-.54,2.49-2.27,4.02-2.85.04-.14.08-.25.15-.36.27,0,.54.04.84.07.04.22.08.47.12.72.54-.65.73-1.19,1.04-1.99.11-.04.23-.07.34-.07.42-1.7,1.23-1.91,2.72-2.78.88-1.19,1.42-1.52,2.26-2.67h.88q.19-.25.11-.61c.19.04.42.07.65.11.08.36.16.72.23,1.12q.35.14,1.42-.11c0,.11.04.22.08.36-.69.47-1.38.94-2.07,1.41Zm-29.6,20.57q.15-.47.46-.69.19.07.04.54c-.19.04-.35.07-.5.14Zm35.88-60.53c-.05.22-.24.38-.47.38h-12.88l-1.07,5.09h10.8c.14,0,.28.06.37.18.09.11.13.26.1.4l-1.23,5.82c-.05.22-.24.38-.47.38h-11l-1.24,5.66h13.07c.14,0,.28.06.37.18.09.11.12.26.1.4l-1.31,6.3c-.05.22-.24.38-.47.38h-20.84c-.14,0-.28-.07-.37-.18-.09-.11-.12-.26-.09-.4l6.61-31.09c.05-.22.24-.38.47-.38h20.45c.14,0,.28.07.37.18.09.11.12.26.09.4l-1.36,6.31Zm9.16-43.64h-.57q.11-.25.57-.36v.36Zm6.24.29c.38-.04.8-.07,1.23-.11v.36c-.46.11-.92.22-1.34.36.04-.22.08-.43.12-.61Zm-.12,5.31h.77v.54h-.77v-.54Zm-1.34,74.4c.04-.18.08-.32.15-.47.08.15.16.29.23.47h-.38Zm-.04-71.11c-.08.15-.11.33-.15.51-.38-.58-.38-.61-1.04-.83.04-.72.92-1.98.46-2.49,1.03-.22,1.19-.15,1.91.07-.15.36-.3.76-.42,1.15q1.19-.18,2.15-.07c-.12,1.19-.73,1.37-1.72,2.09-.42-.15-.8-.29-1.19-.43Zm25.12,3.39c-.04-.22-.08-.43-.08-.61.8-.22,1.27-.14,2.11.04-.38.54-1.38.47-2.03.58Zm10.8-1.98c-.07.18-.15.39-.23.61-.15.04-.31.07-.42.11.23-.72.58-1.26,1.53-1.26.04.22.11.47.19.72-.38-.07-.73-.14-1.07-.18Z"/>
      <path class="cls-1" d="m112.23,57.4c-.42-.59-.97-1.06-1.63-1.41-.66-.34-1.45-.51-2.36-.51-1.4,0-2.68.34-3.81,1.01-1.15.68-2.14,1.56-2.93,2.61-.8,1.06-1.42,2.27-1.86,3.58-.43,1.32-.65,2.62-.65,3.88,0,.92.11,1.8.33,2.61.22.81.55,1.52.98,2.13.42.59.97,1.08,1.63,1.43.66.35,1.45.53,2.36.53,1.42,0,2.71-.35,3.82-1.03,1.14-.69,2.12-1.59,2.91-2.66.8-1.07,1.42-2.29,1.86-3.61.43-1.32.65-2.62.65-3.88,0-.91-.11-1.78-.33-2.59-.22-.79-.55-1.5-.98-2.11Z"/>
      <path class="cls-1" d="m272.21,55.57h-5.35l-1.59,7.54h5.37c.34,0,.7-.12,1.06-.34.39-.24.74-.59,1.05-1.02.32-.44.59-.97.79-1.56.2-.59.3-1.23.3-1.9,0-.86-.18-1.55-.53-2.05-.32-.45-.68-.67-1.1-.67Z"/>
      <path class="cls-1" d="m118.33,13.07c-.07.14-.11.29-.15.47.15-.14.31-.25.5-.36-.12-.04-.23-.07-.35-.11Z"/>
      <path class="cls-1" d="m414.64,13.36h-.38v.18h.38v-.18Z"/>
      <path class="cls-1" d="m397.03,13.36v-.36h-.57v.36h.57Z"/>
      <path class="cls-1" d="m417.71,13.36c.04-.14.11-.25.19-.36-.12.04-.23.07-.34.11.04.07.08.14.15.25Z"/>
      <path class="cls-1" d="m115.95,12.31c-.31.22-.57.43-.84.69q.5-.18.84-.69Z"/>
      <path class="cls-1" d="m116.57,12.38c-.12.18-.23.4-.31.61.61-.07.84-.18,1.26-.58-.35-.04-.65-.04-.96-.04Z"/>
      <path class="cls-1" d="m120.28,13c.08-.07.19-.14.31-.22q-.19-.04-.31.22Z"/>
      <path class="cls-1" d="m394.92,12.81v-.36q-.38-.11-.73.07c.04.07.08.18.15.29h.58Z"/>
      <path class="cls-1" d="m417.71,12.45q-.46.11-.58.36h.58v-.36Z"/>
      <path class="cls-1" d="m114.46,12.2c-1.07-.4-1.99-.47-3.18-.47v.36h-.39v.72c1.15-.07,2.3-.14,3.45-.18.04-.14.08-.29.12-.43Zm-2.41.25h-.19v-.36h.19v.36Z"/>
      <path class="cls-1" d="m106.95,11.59c-.23.14-.46.32-.65.5q.42-.11.65-.5Z"/>
      <path class="cls-1" d="m110.71,11.8c-.65-.11-1.3-.18-1.92-.25-.07.18-.11.36-.15.54.15.11.34.22.54.36.5-.22,1-.43,1.53-.65Zm-1.53.11h.38v.18h-.38v-.18Z"/>
      <path class="cls-1" d="m408.33,11.91c.08-.07.19-.14.3-.18q-.15-.11-.3.18Z"/>
      <path class="cls-1" d="m101.71,11.37h-.38v.18h.38v-.18Z"/>
      <path class="cls-1" d="m103.05,10.9c-.38.22-.77.43-1.15.65.42-.07.88-.15,1.34-.18-.08-.18-.15-.32-.19-.47Z"/>
      <path class="cls-1" d="m104.62,10.65c-.42.4-.84.18-1,.91.42-.18.84-.36,1.26-.54-.11-.14-.19-.25-.27-.36Z"/>
      <path class="cls-1" d="m105.92,11.55c.08-.07.19-.15.31-.22q-.19-.04-.31.22Z"/>
      <path class="cls-1" d="m108.22,11.37h-.39v.18h.39v-.18Z"/>
      <path class="cls-1" d="m407.75,11.37h-.38v.18h.38v-.18Z"/>
      <path class="cls-1" d="m100.75,11.37c.08-.21.19-.4.31-.58q-.19-.04-.31.58Z"/>
      <path class="cls-1" d="m97.23,10.58q-.31.25-.31.61,1.3-.07,2.53-.47-.04-.18-1.22.07c-.08-.18-.12-.36-.16-.51-.23.04-.42.07-.61.14-.04-.14-.04-.25-.04-.36-.31-.07-.61-.11-.88-.15.04.18.08.4.12.61.19,0,.38,0,.57.04Z"/>
      <path class="cls-1" d="m102.28,10.83h-.38v.18h.38v-.18Z"/>
      <path class="cls-1" d="m96.15,10.29c-.15.04-.3.07-.46.11-.04.14-.08.29-.11.43.19-.07.38-.14.57-.18v-.36Z"/>
      <path class="cls-1" d="m397.6,10.83c.08-.07.19-.14.31-.22q-.19-.04-.31.22Z"/>
      <path class="cls-1" d="m98.88,10.14q-.42.14-.42.33h.57c-.08-.11-.12-.22-.15-.33Z"/>
      <path class="cls-1" d="m94.05,10.4c.08-.11.19-.22.31-.32-.04-.18-.08-.36-.12-.51q-2.14.07-2.95.36c-.04.11-.08.22-.12.36.12.04.23.11.38.18,1.19-.4,1.38-.47,2.49-.07Zm-1.88-.61q.58.07.65.22c-.23.04-.46.07-.69.11,0-.11,0-.22.04-.33Z"/>
      <path class="cls-1" d="m88.3,9.93h1.34v-.36c-.23.04-.46.07-.69.11,0-.25,0-.47.04-.69-.54-.14-.73.32-1.07.65.12.07.23.18.38.29Z"/>
      <path class="cls-1" d="m85.55,9.17c-.38-.04-.77-.07-1.11-.07-.08.07-.12.18-.15.29.42-.07.84-.14,1.26-.22Z"/>
      <path class="cls-1" d="m86.77,9.38c.42-.22.88-.43,1.34-.65-.57,0-1.15.04-1.34.65Z"/>
      <path class="cls-1" d="m90.22,9.21h-.38v.18h.38v-.18Z"/>
      <path class="cls-1" d="m385.92,9.21h.57c-.08-.11-.11-.22-.15-.32q-.42.14-.42.32Z"/>
      <path class="cls-1" d="m84.32,7.94c-.15.22-.31.47-.42.72.12-.11.27-.22.42-.29v-.43Z"/>
      <path class="cls-1" d="m82.56,8.48c.08-.07.19-.14.31-.22q-.19-.04-.31.22Z"/>
      <path class="cls-1" d="m387.84,8.12c-.12.04-.23.07-.35.11.04.07.08.14.15.25.04-.14.11-.25.19-.36Z"/>
      <path class="cls-1" d="m79.5,7.76c-.08.18-.15.36-.19.54.42-.18.88-.33,1.34-.47-.38-.04-.77-.07-1.15-.07Z"/>
      <path class="cls-1" d="m78.54,7.94h-1.34v.18h1.34v-.18Z"/>
      <path class="cls-1" d="m417.9,7.94c.27-.14.57-.29.88-.4-.43-.11-.73.04-.88.4Z"/>
      <path class="cls-1" d="m76.7,7.36c-.54-.11-1.07-.22-1.61-.33v.54c.19.03.38.11.58.18.34-.15.69-.29,1.03-.4Z"/>
      <path class="cls-1" d="m388.22,6.79c.04.14.12.29.19.43.12-.04.27-.07.42-.11q.08-.18-.19-.76c.85-.43,1.5-.87,2.49-.87q.19-.4.53-.44v-.36c-1.57.18-3.45,1.12-4.56,2.17.38.07.5-.07,1.11-.07Z"/>
      <path class="cls-1" d="m72.03,6.39c-.27.14-.54.29-.8.47.27-.04.54-.07.84-.11-.04-.14-.04-.25-.04-.36Z"/>
      <path class="cls-1" d="m69.85,6.39c-.08.07-.12.18-.15.29.23-.04.5-.07.77-.11-.23-.07-.42-.14-.61-.18Z"/>
      <path class="cls-1" d="m68.54,5.78v.36c.27-.11.57-.22.88-.32q-.42-.18-.88-.04Z"/>
      <path class="cls-1" d="m340.24,5.6q-.15-.11-.3.18c.07-.07.19-.14.3-.18Z"/>
      <path class="cls-1" d="m394.73,5.78c.07-.07.19-.14.3-.21q-.19-.04-.3.21Z"/>
      <path class="cls-1" d="m397.41,4.55c-.38.22-.76.44-1.15.69.54-.18,1.11-.36,1.69-.51-.19-.07-.38-.14-.54-.18Z"/>
      <path class="cls-1" d="m361.68,4.84c-.07-.11-.11-.18-.15-.25-.12.14-.23.29-.35.47.15-.07.3-.14.49-.22Z"/>
      <path class="cls-1" d="m378.87,4.44q-.19.04-.04.25c0-.11,0-.18.04-.25Z"/>
      <path class="cls-1" d="m392.09,4.33c.11.11.23.21.34.36.31-.11.62-.22.96-.29-.23-.11-.46-.22-.69-.32.08-.04.19-.07.3-.11q0-.18-.57-.18c-.11.18-.23.36-.34.54Z"/>
      <path class="cls-1" d="m361.19,4.33c1.11-.47,2.14-.97,2.3-2.17-.27.04-.54.11-.77.18-.46.87-.61,1.16-1.53,1.62v.36Z"/>
      <path class="cls-1" d="m393.78,3.97c-.12.04-.23.07-.35.11.04.07.07.14.15.25.04-.14.12-.25.2-.36Z"/>
      <path class="cls-1" d="m40.21,4.15c.08-.07.19-.14.31-.22q-.19-.04-.31.22Z"/>
      <path class="cls-1" d="m376.35,2.24c-1.3.79-2.87.97-4.21,1.91,1.3-.4,2.87-.79,4.25-1.01-.04-.32-.04-.61-.04-.9Z"/>
      <path class="cls-1" d="m343.3,3.39c-.53-.14-.77.11-.88.58.19-.04.42-.07.65-.11.08-.18.15-.33.23-.47Z"/>
      <path class="cls-1" d="m40.97,3.79c.08-.07.19-.14.31-.18q-.15-.11-.31.18Z"/>
      <path class="cls-1" d="m37.91,3.25c.12-.04.23-.07.38-.11-.42-.11-.8-.58-1.34-.79v.36q.73.25.96.54Z"/>
      <path class="cls-1" d="m343.95,3.07h-.38v.18h.38v-.18Z"/>
      <path class="cls-1" d="m373.13,2.64h-.5c-.04.18-.08.4-.12.61.19-.11.38-.22.61-.29v-.32Z"/>
      <path class="cls-1" d="m370.19,3.07q.46-.43.46-.8-.5-.21-1.23-.11v.36q.35.07.77.54Z"/>
      <path class="cls-1" d="m35.8,2.89q.34-.14.5-.54c-.23-.18-.46-.33-.65-.47q.23.58.15,1.01Z"/>
      <path class="cls-1" d="m348.36,2.89c.15-.07.31-.14.5-.22q-.38-.03-.5.22Z"/>
      <path class="cls-1" d="m371.79,2.35q-.19.25-.04.54c0-.18,0-.36.04-.54Z"/>
      <path class="cls-1" d="m389.75.9c.19-.11.38-.22.57-.29q-.46.04-.57.29Z"/>
      <path class="cls-1" d="m391.86,0v.36c.19-.07.38-.14.57-.18q0-.18-.57-.18Z"/>
    </g>
  </g>
</svg>